<?xml version="1.0" encoding="UTF-8" standalone="no"?>
<svg
   enable-background="new 0 0 349.5 219.7"
   viewBox="0 0 349.5 219.7"
   version="1.1"
   id="svg882"
   sodipodi:docname="controlled-reaction.svg"
   inkscape:version="1.2.2 (732a01da63, 2022-12-09)"
   xmlns:inkscape="http://www.inkscape.org/namespaces/inkscape"
   xmlns:sodipodi="http://sodipodi.sourceforge.net/DTD/sodipodi-0.dtd"
   xmlns:xlink="http://www.w3.org/1999/xlink"
   xmlns="http://www.w3.org/2000/svg"
   xmlns:svg="http://www.w3.org/2000/svg">
  <defs
     id="defs886" />
  <sodipodi:namedview
     id="namedview884"
     pagecolor="#7c7c7c"
     bordercolor="#666666"
     borderopacity="1.0"
     inkscape:showpageshadow="2"
     inkscape:pageopacity="0"
     inkscape:pagecheckerboard="0"
     inkscape:deskcolor="#d1d1d1"
     showgrid="false"
     inkscape:zoom="0.77589542"
     inkscape:cx="170.77044"
     inkscape:cy="18.043669"
     inkscape:window-width="1366"
     inkscape:window-height="705"
     inkscape:window-x="-8"
     inkscape:window-y="-8"
     inkscape:window-maximized="1"
     inkscape:current-layer="svg882" />
  <linearGradient
     id="a">
    <stop
       offset="0"
       stop-color="#fff"
       id="stop510" />
    <stop
       offset="1"
       id="stop512" />
  </linearGradient>
  <radialGradient
     id="b"
     cx="88.3188"
     cy="391.8127"
     gradientTransform="matrix(-.2607 .9654 1.0234 .2764 -293.4252 -60.0259)"
     gradientUnits="userSpaceOnUse"
     r="16.6587"
     xlink:href="#a" />
  <radialGradient
     id="c"
     cx="70.6256"
     cy="394.968"
     gradientTransform="matrix(-.2607 .9654 1.0234 .2764 -307.348 -60.7289)"
     gradientUnits="userSpaceOnUse"
     r="16.6594"
     xlink:href="#a" />
  <radialGradient
     id="d"
     cx="100.0649"
     cy="400.4842"
     gradientTransform="matrix(-.2607 .9654 1.0234 .2764 -285.8657 -67.8992)"
     gradientUnits="userSpaceOnUse"
     r="16.6612"
     xlink:href="#a" />
  <radialGradient
     id="e"
     cx="94.3467"
     cy="394.3018"
     gradientTransform="matrix(-.2607 .9654 1.0234 .2764 -289.2392 -62.5473)"
     gradientUnits="userSpaceOnUse"
     r="16.6597"
     xlink:href="#a" />
  <linearGradient
     id="f">
    <stop
       offset="0"
       stop-color="#fff"
       id="stop519" />
    <stop
       offset=".7819"
       id="stop521" />
  </linearGradient>
  <radialGradient
     id="g"
     cx="102.9005"
     cy="409.6965"
     gradientTransform="matrix(-.2607 .9654 1.0234 .2764 -285.154 -75.3147)"
     gradientUnits="userSpaceOnUse"
     r="16.6609"
     xlink:href="#f" />
  <radialGradient
     id="h"
     cx="101.272"
     cy="417.127"
     gradientTransform="matrix(-.2607 .9654 1.0234 .2764 -287.552 -80.9107)"
     gradientUnits="userSpaceOnUse"
     r="16.6602"
     xlink:href="#f" />
  <linearGradient
     id="i">
    <stop
       offset="0"
       stop-color="#b50404"
       id="stop526" />
    <stop
       offset=".5043"
       stop-color="#a30000"
       id="stop528" />
    <stop
       offset=".879"
       stop-color="#3f0000"
       id="stop530" />
  </linearGradient>
  <radialGradient
     id="j"
     cx="68.9332"
     cy="399.5798"
     fx="63.4383"
     gradientTransform="matrix(-.2607 .9654 1.0233 .2764 -309.3244 -64.1352)"
     gradientUnits="userSpaceOnUse"
     r="7.9604"
     xlink:href="#i" />
  <radialGradient
     id="k"
     cx="80.5425"
     cy="425.6179"
     fx="75.047"
     gradientTransform="matrix(-.2607 .9654 1.0233 .2764 -304.5835 -85.4482)"
     gradientUnits="userSpaceOnUse"
     r="7.9613"
     xlink:href="#i" />
  <radialGradient
     id="l"
     cx="99.7268"
     cy="422.3178"
     fx="94.2314"
     gradientTransform="matrix(-.2607 .9654 1.0233 .2764 -289.5066 -84.7798)"
     gradientUnits="userSpaceOnUse"
     r="7.9611"
     xlink:href="#i" />
  <radialGradient
     id="m"
     cx="100.6618"
     cy="412.9181"
     fx="95.1662"
     gradientTransform="matrix(-.2607 .9654 1.0233 .2764 -287.3273 -77.5903)"
     gradientUnits="userSpaceOnUse"
     r="7.9614"
     xlink:href="#i" />
  <radialGradient
     id="n"
     cx="88.7878"
     cy="428.3595"
     gradientTransform="matrix(-.2607 .9654 1.0234 .2764 -298.784 -88.3834)"
     gradientUnits="userSpaceOnUse"
     r="16.6602"
     xlink:href="#f" />
  <radialGradient
     id="o"
     cx="86.5041"
     cy="418.8315"
     gradientTransform="matrix(-.2607 .9654 1.0234 .2764 -299.0274 -80.7777)"
     gradientUnits="userSpaceOnUse"
     r="16.6614"
     xlink:href="#f" />
  <radialGradient
     id="p"
     cx="72.7748"
     cy="406.619"
     gradientTransform="matrix(-.2607 .9654 1.0234 .2764 -307.5385 -69.966)"
     gradientUnits="userSpaceOnUse"
     r="16.6608"
     xlink:href="#f" />
  <radialGradient
     id="q"
     cx="83.895"
     cy="412.284"
     gradientTransform="matrix(-.2607 .9654 1.0234 .2764 -299.984 -75.4488)"
     gradientUnits="userSpaceOnUse"
     r="16.6599"
     xlink:href="#f" />
  <radialGradient
     id="r"
     cx="64.1401"
     cy="411.9333"
     gradientTransform="matrix(-.2607 .9654 1.0234 .2764 -314.9233 -73.2331)"
     gradientUnits="userSpaceOnUse"
     r="16.6619"
     xlink:href="#f" />
  <radialGradient
     id="s"
     cx="66.8393"
     cy="420.3914"
     gradientTransform="matrix(-.2607 .9654 1.0234 .2764 -314.1972 -80.0508)"
     gradientUnits="userSpaceOnUse"
     r="16.6599"
     xlink:href="#f" />
  <radialGradient
     id="t"
     cx="95.5283"
     cy="403.2041"
     fx="90.033"
     gradientTransform="matrix(-.2607 .9654 1.0233 .2764 -289.705 -69.5601)"
     gradientUnits="userSpaceOnUse"
     r="7.961"
     xlink:href="#i" />
  <radialGradient
     id="u"
     cx="78.9694"
     cy="412.9943"
     fx="73.4741"
     gradientTransform="matrix(-.2607 .9654 1.0233 .2764 -303.804 -75.5145)"
     gradientUnits="userSpaceOnUse"
     r="7.961"
     xlink:href="#i" />
  <radialGradient
     id="v"
     cx="78.991"
     cy="391.3577"
     gradientTransform="matrix(-.2607 .9654 1.0234 .2764 -300.434 -58.7554)"
     gradientUnits="userSpaceOnUse"
     r="16.6611"
     xlink:href="#a" />
  <radialGradient
     id="w"
     cx="84.8396"
     cy="398.2571"
     fx="79.344"
     gradientTransform="matrix(-.2607 .9654 1.0233 .2764 -297.0445 -64.676)"
     gradientUnits="userSpaceOnUse"
     r="7.9613"
     xlink:href="#i" />
  <radialGradient
     id="x"
     cx="91.7012"
     cy="518.1071"
     gradientTransform="matrix(-.2607 .9654 1.0234 .2764 -310.6062 -158.194)"
     gradientUnits="userSpaceOnUse"
     r="16.6586"
     xlink:href="#a" />
  <radialGradient
     id="y"
     cx="74.0079"
     cy="521.2624"
     gradientTransform="matrix(-.2607 .9654 1.0234 .2764 -324.529 -158.897)"
     gradientUnits="userSpaceOnUse"
     r="16.6594"
     xlink:href="#a" />
  <radialGradient
     id="z"
     cx="103.4473"
     cy="526.7786"
     gradientTransform="matrix(-.2607 .9654 1.0234 .2764 -303.0467 -166.0674)"
     gradientUnits="userSpaceOnUse"
     r="16.6612"
     xlink:href="#a" />
  <radialGradient
     id="A"
     cx="82.3734"
     cy="517.652"
     gradientTransform="matrix(-.2607 .9654 1.0234 .2764 -317.615 -156.9235)"
     gradientUnits="userSpaceOnUse"
     r="16.6611"
     xlink:href="#a" />
  <radialGradient
     id="B"
     cx="106.2828"
     cy="535.9908"
     gradientTransform="matrix(-.2607 .9654 1.0234 .2764 -302.335 -173.4828)"
     gradientUnits="userSpaceOnUse"
     r="16.6608"
     xlink:href="#f" />
  <radialGradient
     id="C"
     cx="104.6543"
     cy="543.4214"
     gradientTransform="matrix(-.2607 .9654 1.0234 .2764 -304.7329 -179.0788)"
     gradientUnits="userSpaceOnUse"
     r="16.6602"
     xlink:href="#f" />
  <radialGradient
     id="D"
     cx="72.3155"
     cy="525.8741"
     fx="66.8206"
     gradientTransform="matrix(-.2607 .9654 1.0233 .2764 -326.5018 -162.3024)"
     gradientUnits="userSpaceOnUse"
     r="7.9604"
     xlink:href="#i" />
  <radialGradient
     id="E"
     cx="83.9248"
     cy="551.9122"
     fx="78.4293"
     gradientTransform="matrix(-.2607 .9654 1.0233 .2764 -321.7609 -183.6154)"
     gradientUnits="userSpaceOnUse"
     r="7.9613"
     xlink:href="#i" />
  <radialGradient
     id="F"
     cx="97.729"
     cy="520.5962"
     gradientTransform="matrix(-.2607 .9654 1.0234 .2764 -306.4202 -160.7154)"
     gradientUnits="userSpaceOnUse"
     r="16.6597"
     xlink:href="#a" />
  <radialGradient
     id="G"
     cx="103.1091"
     cy="548.6121"
     fx="97.6137"
     gradientTransform="matrix(-.2607 .9654 1.0233 .2764 -306.6839 -182.9469)"
     gradientUnits="userSpaceOnUse"
     r="7.9611"
     xlink:href="#i" />
  <radialGradient
     id="H"
     cx="104.6645"
     cy="539.2885"
     fx="99.1689"
     gradientTransform="matrix(-.2607 .9654 1.0233 .2764 -304.0457 -175.8774)"
     gradientUnits="userSpaceOnUse"
     r="7.9614"
     xlink:href="#i" />
  <radialGradient
     id="I"
     cx="92.1701"
     cy="554.6539"
     gradientTransform="matrix(-.2607 .9654 1.0234 .2764 -315.965 -186.5515)"
     gradientUnits="userSpaceOnUse"
     r="16.6602"
     xlink:href="#f" />
  <radialGradient
     id="J"
     cx="89.7781"
     cy="545.188"
     gradientTransform="matrix(-.2607 .9654 1.0234 .2764 -316.3004 -178.9834)"
     gradientUnits="userSpaceOnUse"
     r="16.6614"
     xlink:href="#f" />
  <radialGradient
     id="K"
     cx="76.1571"
     cy="532.9135"
     gradientTransform="matrix(-.2607 .9654 1.0234 .2764 -324.7195 -168.1342)"
     gradientUnits="userSpaceOnUse"
     r="16.6608"
     xlink:href="#f" />
  <radialGradient
     id="L"
     cx="88.3474"
     cy="538.6841"
     gradientTransform="matrix(-.2607 .9654 1.0234 .2764 -316.3694 -173.8042)"
     gradientUnits="userSpaceOnUse"
     r="16.6599"
     xlink:href="#f" />
  <radialGradient
     id="M"
     cx="67.5224"
     cy="538.2278"
     gradientTransform="matrix(-.2607 .9654 1.0234 .2764 -332.1043 -171.4012)"
     gradientUnits="userSpaceOnUse"
     r="16.6619"
     xlink:href="#f" />
  <radialGradient
     id="N"
     cx="70.2216"
     cy="546.6857"
     gradientTransform="matrix(-.2607 .9654 1.0234 .2764 -331.3782 -178.2189)"
     gradientUnits="userSpaceOnUse"
     r="16.6599"
     xlink:href="#f" />
  <radialGradient
     id="O"
     cx="98.2877"
     cy="528.4147"
     fx="92.7924"
     gradientTransform="matrix(-.2607 .9654 1.0233 .2764 -307.1857 -166.8264)"
     gradientUnits="userSpaceOnUse"
     r="7.961"
     xlink:href="#i" />
  <radialGradient
     id="P"
     cx="88.2219"
     cy="524.5514"
     fx="82.7263"
     gradientTransform="matrix(-.2607 .9654 1.0233 .2764 -314.2218 -162.8431)"
     gradientUnits="userSpaceOnUse"
     r="7.9613"
     xlink:href="#i" />
  <radialGradient
     id="Q"
     cx="82.3517"
     cy="539.2887"
     fx="76.8564"
     gradientTransform="matrix(-.2607 .9654 1.0233 .2764 -320.9814 -173.6817)"
     gradientUnits="userSpaceOnUse"
     r="7.961"
     xlink:href="#i" />
  <radialGradient
     id="R"
     cx="183.7131"
     cy="572.3104"
     gradientTransform="matrix(-.2607 .9654 1.0234 .2764 -249.2438 -209.2384)"
     gradientUnits="userSpaceOnUse"
     r="16.6594"
     xlink:href="#a" />
  <radialGradient
     id="S"
     cx="201.4065"
     cy="569.1552"
     gradientTransform="matrix(-.2607 .9654 1.0234 .2764 -235.3209 -208.5354)"
     gradientUnits="userSpaceOnUse"
     r="16.6586"
     xlink:href="#a" />
  <radialGradient
     id="T"
     cx="213.1527"
     cy="577.8265"
     gradientTransform="matrix(-.2607 .9654 1.0234 .2764 -227.7614 -216.4088)"
     gradientUnits="userSpaceOnUse"
     r="16.6615"
     xlink:href="#a" />
  <radialGradient
     id="U"
     cx="207.4343"
     cy="571.6442"
     gradientTransform="matrix(-.2607 .9654 1.0234 .2764 -231.135 -211.0567)"
     gradientUnits="userSpaceOnUse"
     r="16.6597"
     xlink:href="#a" />
  <radialGradient
     id="V"
     cx="215.9881"
     cy="587.0389"
     gradientTransform="matrix(-.2607 .9654 1.0234 .2764 -227.0498 -223.8242)"
     gradientUnits="userSpaceOnUse"
     r="16.661"
     xlink:href="#f" />
  <radialGradient
     id="W"
     cx="214.3597"
     cy="594.4695"
     gradientTransform="matrix(-.2607 .9654 1.0234 .2764 -229.4477 -229.4201)"
     gradientUnits="userSpaceOnUse"
     r="16.6602"
     xlink:href="#f" />
  <radialGradient
     id="X"
     cx="192.0787"
     cy="568.7001"
     gradientTransform="matrix(-.2607 .9654 1.0234 .2764 -242.3297 -207.2649)"
     gradientUnits="userSpaceOnUse"
     r="16.6611"
     xlink:href="#a" />
  <radialGradient
     id="Y"
     cx="182.0208"
     cy="576.9221"
     fx="176.5259"
     gradientTransform="matrix(-.2607 .9654 1.0233 .2764 -251.215 -212.6433)"
     gradientUnits="userSpaceOnUse"
     r="7.9604"
     xlink:href="#i" />
  <radialGradient
     id="Z"
     cx="193.6302"
     cy="602.9603"
     fx="188.1347"
     gradientTransform="matrix(-.2607 .9654 1.0233 .2764 -246.4741 -233.9563)"
     gradientUnits="userSpaceOnUse"
     r="7.9613"
     xlink:href="#i" />
  <radialGradient
     id="aa"
     cx="212.8143"
     cy="599.6602"
     fx="207.319"
     gradientTransform="matrix(-.2607 .9654 1.0233 .2764 -231.3972 -233.2879)"
     gradientUnits="userSpaceOnUse"
     r="7.9611"
     xlink:href="#i" />
  <radialGradient
     id="ab"
     cx="213.5787"
     cy="590.2144"
     fx="208.0831"
     gradientTransform="matrix(-.2607 .9654 1.0233 .2764 -229.3403 -226.0459)"
     gradientUnits="userSpaceOnUse"
     r="7.9614"
     xlink:href="#i" />
  <radialGradient
     id="ac"
     cx="201.8754"
     cy="605.7018"
     gradientTransform="matrix(-.2607 .9654 1.0234 .2764 -240.6797 -236.8928)"
     gradientUnits="userSpaceOnUse"
     r="16.6602"
     xlink:href="#f" />
  <radialGradient
     id="ad"
     cx="199.5917"
     cy="596.1739"
     gradientTransform="matrix(-.2607 .9654 1.0234 .2764 -240.9232 -229.2871)"
     gradientUnits="userSpaceOnUse"
     r="16.6615"
     xlink:href="#f" />
  <radialGradient
     id="ae"
     cx="185.8625"
     cy="583.9615"
     gradientTransform="matrix(-.2607 .9654 1.0234 .2764 -249.4343 -218.4755)"
     gradientUnits="userSpaceOnUse"
     r="16.6608"
     xlink:href="#f" />
  <radialGradient
     id="af"
     cx="196.8119"
     cy="589.5803"
     gradientTransform="matrix(-.2607 .9654 1.0234 .2764 -242.0021 -223.9057)"
     gradientUnits="userSpaceOnUse"
     r="16.6599"
     xlink:href="#f" />
  <radialGradient
     id="ag"
     cx="177.2278"
     cy="589.2758"
     gradientTransform="matrix(-.2607 .9654 1.0234 .2764 -256.819 -221.7425)"
     gradientUnits="userSpaceOnUse"
     r="16.6619"
     xlink:href="#f" />
  <radialGradient
     id="ah"
     cx="179.9269"
     cy="597.7338"
     gradientTransform="matrix(-.2607 .9654 1.0234 .2764 -256.0929 -228.5602)"
     gradientUnits="userSpaceOnUse"
     r="16.6599"
     xlink:href="#f" />
  <radialGradient
     id="ai"
     cx="197.9272"
     cy="575.5994"
     fx="192.4316"
     gradientTransform="matrix(-.2607 .9654 1.0233 .2764 -238.9351 -213.184)"
     gradientUnits="userSpaceOnUse"
     r="7.9613"
     xlink:href="#i" />
  <radialGradient
     id="aj"
     cx="208.6159"
     cy="580.5465"
     fx="203.1206"
     gradientTransform="matrix(-.2607 .9654 1.0233 .2764 -231.5957 -218.0682)"
     gradientUnits="userSpaceOnUse"
     r="7.961"
     xlink:href="#i" />
  <radialGradient
     id="ak"
     cx="192.0569"
     cy="590.3367"
     fx="186.5616"
     gradientTransform="matrix(-.2607 .9654 1.0233 .2764 -245.6947 -224.0226)"
     gradientUnits="userSpaceOnUse"
     r="7.961"
     xlink:href="#i" />
  <radialGradient
     id="al"
     cx="83.5598"
     cy="470.5229"
     gradientTransform="matrix(-.2607 .9654 1.0234 .2764 -309.345 -120.5312)"
     gradientUnits="userSpaceOnUse"
     r="16.6599"
     xlink:href="#f" />
  <radialGradient
     id="am"
     cx="50.1955"
     cy="351.7703"
     gradientTransform="matrix(-.2607 .9654 1.0234 .2764 -316.0999 -25.2547)"
     gradientUnits="userSpaceOnUse"
     r="16.6599"
     xlink:href="#f" />
  <radialGradient
     id="an"
     cx="84.6168"
     cy="596.8448"
     gradientTransform="matrix(-.2607 .9654 1.0234 .2764 -328.2952 -218.4919)"
     gradientUnits="userSpaceOnUse"
     r="16.6598"
     xlink:href="#f" />
  <radialGradient
     id="ao"
     cx="142.9728"
     cy="558.4034"
     gradientTransform="matrix(-.2607 .9654 1.0234 .2764 -277.9915 -194.4558)"
     gradientUnits="userSpaceOnUse"
     r="16.6598"
     xlink:href="#f" />
  <radialGradient
     id="ap"
     cx="141.7484"
     cy="434.2829"
     gradientTransform="matrix(-.2607 .9654 1.0234 .2764 -259.5126 -98.184)"
     gradientUnits="userSpaceOnUse"
     r="16.6601"
     xlink:href="#f" />
  <path
     d="m86.7 145.2c-3.3 1.9-7.6.8-9.5-2.6-1.9-3.3-.8-7.6 2.6-9.5s7.6-.8 9.5 2.6c1.9 3.3.7 7.6-2.6 9.5z"
     fill="url(#b)"
     id="path592" />
  <path
     d="m80.6 128.3c-3.3 1.9-7.6.8-9.5-2.6-1.9-3.3-.8-7.6 2.6-9.5s7.6-.8 9.5 2.6c1.9 3.3.8 7.6-2.6 9.5z"
     fill="url(#c)"
     id="path594" />
  <path
     d="m100.1 151.1c-3.3 1.9-7.6.8-9.5-2.6-1.9-3.3-.8-7.6 2.6-9.5 3.3-1.9 7.6-.8 9.5 2.6 1.9 3.3.7 7.5-2.6 9.5z"
     fill="url(#d)"
     id="path596" />
  <path
     d="m91.9 149.2c-3.3 1.9-7.6.8-9.5-2.6-1.9-3.3-.8-7.6 2.6-9.5s7.6-.8 9.5 2.6c1.9 3.3.7 7.6-2.6 9.5z"
     fill="url(#e)"
     id="path598" />
  <path
     d="m109.5 148.9c-3.3 1.9-7.6.8-9.5-2.6-1.9-3.3-.8-7.6 2.6-9.5s7.6-.8 9.5 2.6c1.9 3.3.7 7.6-2.6 9.5z"
     fill="url(#g)"
     id="path600" />
  <path
     d="m115.1 143.8c-3.3 1.9-7.6.8-9.5-2.6-1.9-3.3-.8-7.6 2.6-9.5s7.6-.8 9.5 2.6c1.9 3.3.7 7.6-2.6 9.5z"
     fill="url(#h)"
     id="path602" />
  <path
     d="m84.6 120.2c-3.3 1.9-7.6.8-9.5-2.6s-.8-7.6 2.6-9.5c3.3-1.9 7.6-.8 9.5 2.6 1.9 3.3.8 7.5-2.6 9.5z"
     fill="url(#j)"
     id="path604" />
  <path
     d="m113 117.3c-3.3 1.9-7.6.8-9.5-2.6s-.8-7.6 2.6-9.5 7.6-.8 9.5 2.6c1.9 3.3.7 7.5-2.6 9.5z"
     fill="url(#k)"
     id="path606" />
  <path
     d="m119.7 135.5c-3.3 1.9-7.6.8-9.5-2.6-1.9-3.3-.8-7.6 2.6-9.5s7.6-.8 9.5 2.6.7 7.6-2.6 9.5z"
     fill="url(#l)"
     id="path608" />
  <path
     d="m112 141c-3.3 1.9-7.6.8-9.5-2.6-1.9-3.3-.8-7.6 2.6-9.5s7.6-.8 9.5 2.6c1.9 3.3.7 7.6-2.6 9.5z"
     fill="url(#m)"
     id="path610" />
  <path
     d="m118.6 127.4c-3.3 1.9-7.6.8-9.5-2.6-1.9-3.3-.8-7.6 2.6-9.5s7.6-.8 9.5 2.6c1.9 3.3.8 7.6-2.6 9.5z"
     fill="url(#n)"
     id="path612" />
  <path
     d="m109.2 130.2c-3.3 1.9-7.6.8-9.5-2.6-1.9-3.3-.8-7.6 2.6-9.5 3.3-1.9 7.6-.8 9.5 2.6s.8 7.5-2.6 9.5z"
     fill="url(#o)"
     id="path614" />
  <path
     d="m91.8 124.3c-3.3 1.9-7.6.8-9.5-2.6-1.9-3.3-.8-7.6 2.6-9.5s7.6-.8 9.5 2.6.7 7.6-2.6 9.5z"
     fill="url(#p)"
     id="path616" />
  <path
     d="m102.2 131.2c-3.3 1.9-7.6.8-9.5-2.6-1.9-3.3-.8-7.6 2.6-9.5 3.3-1.9 7.6-.8 9.5 2.6 1.9 3.3.8 7.5-2.6 9.5z"
     fill="url(#q)"
     id="path618" />
  <path
     d="m92.1 114.2c-3.3 1.9-7.6.8-9.5-2.6s-.8-7.6 2.6-9.5 7.6-.8 9.5 2.6.7 7.6-2.6 9.5z"
     fill="url(#r)"
     id="path620" />
  <path
     d="m100.8 112.3c-3.3 1.9-7.6.8-9.5-2.6s-.8-7.6 2.6-9.5c3.3-1.9 7.6-.8 9.5 2.6 1.9 3.3.7 7.6-2.6 9.5z"
     fill="url(#s)"
     id="path622" />
  <path
     d="m101 141.4c-3.3 1.9-7.6.8-9.5-2.6-1.9-3.3-.8-7.6 2.6-9.5s7.6-.8 9.5 2.6c1.9 3.3.8 7.6-2.6 9.5z"
     fill="url(#t)"
     id="path624" />
  <path
     d="m101.3 122.2c-3.3 1.9-7.6.8-9.5-2.6s-.8-7.6 2.6-9.5 7.6-.8 9.5 2.6c1.9 3.3.7 7.6-2.6 9.5z"
     fill="url(#u)"
     id="path626" />
  <path
     d="m81.7 137.3c-3.3 1.9-7.6.8-9.5-2.6-1.9-3.3-.8-7.6 2.6-9.5s7.6-.8 9.5 2.6c1.9 3.3.7 7.6-2.6 9.5z"
     fill="url(#v)"
     id="path628" />
  <path
     d="m91.4 134.6c-3.3 1.9-7.6.8-9.5-2.6-1.9-3.3-.8-7.6 2.6-9.5s7.6-.8 9.5 2.6c1.9 3.3.8 7.6-2.6 9.5z"
     fill="url(#w)"
     id="path630" />
  <path
     d="m197.9 85.2c-3.3 1.9-7.6.8-9.5-2.6-1.9-3.3-.8-7.6 2.6-9.5 3.3-1.9 7.6-.8 9.5 2.6 1.9 3.3.7 7.6-2.6 9.5z"
     fill="url(#x)"
     id="path632" />
  <path
     d="m191.8 68.3c-3.3 1.9-7.6.8-9.5-2.6-1.9-3.3-.8-7.6 2.6-9.5 3.3-1.9 7.6-.8 9.5 2.6 1.9 3.3.7 7.6-2.6 9.5z"
     fill="url(#y)"
     id="path634" />
  <path
     d="m211.3 91.1c-3.3 1.9-7.6.8-9.5-2.6s-.8-7.6 2.6-9.5c3.3-1.9 7.6-.8 9.5 2.6 1.9 3.3.7 7.5-2.6 9.5z"
     fill="url(#z)"
     id="path636" />
  <path
     d="m192.8 77.3c-3.3 1.9-7.6.8-9.5-2.6s-.8-7.6 2.6-9.5c3.3-1.9 7.6-.8 9.5 2.6s.8 7.6-2.6 9.5z"
     fill="url(#A)"
     id="path638" />
  <path
     d="m220.7 88.9c-3.3 1.9-7.6.8-9.5-2.6s-.8-7.6 2.6-9.5c3.3-1.9 7.6-.8 9.5 2.6 1.8 3.3.7 7.6-2.6 9.5z"
     fill="url(#B)"
     id="path640" />
  <path
     d="m226.3 83.8c-3.3 1.9-7.6.8-9.5-2.6s-.8-7.6 2.6-9.5c3.3-1.9 7.6-.8 9.5 2.6 1.9 3.3.7 7.6-2.6 9.5z"
     fill="url(#C)"
     id="path642" />
  <path
     d="m195.8 60.2c-3.3 1.9-7.6.8-9.5-2.6s-.8-7.6 2.6-9.5c3.3-1.9 7.6-.8 9.5 2.6 1.9 3.3.8 7.5-2.6 9.5z"
     fill="url(#D)"
     id="path644" />
  <path
     d="m224.2 57.3c-3.3 1.9-7.6.8-9.5-2.6s-.8-7.6 2.6-9.5c3.3-1.9 7.6-.8 9.5 2.6s.7 7.5-2.6 9.5z"
     fill="url(#E)"
     id="path646" />
  <path
     d="m203 89.2c-3.3 1.9-7.6.8-9.5-2.6s-.8-7.6 2.6-9.5c3.3-1.9 7.6-.8 9.5 2.6 1.9 3.3.8 7.6-2.6 9.5z"
     fill="url(#F)"
     id="path648" />
  <path
     d="m230.9 75.5c-3.3 1.9-7.6.8-9.5-2.6s-.8-7.6 2.6-9.5c3.3-1.9 7.6-.8 9.5 2.6 1.9 3.3.7 7.6-2.6 9.5z"
     fill="url(#G)"
     id="path650" />
  <path
     d="m223.6 81.5c-3.3 1.9-7.6.8-9.5-2.6s-.8-7.6 2.6-9.5c3.3-1.9 7.6-.8 9.5 2.6 1.9 3.3.7 7.6-2.6 9.5z"
     fill="url(#H)"
     id="path652" />
  <path
     d="m229.8 67.4c-3.3 1.9-7.6.8-9.5-2.6-1.9-3.3-.8-7.6 2.6-9.5 3.3-1.9 7.6-.8 9.5 2.6 1.9 3.3.7 7.6-2.6 9.5z"
     fill="url(#I)"
     id="path654" />
  <path
     d="m220.4 70c-3.3 1.9-7.6.8-9.5-2.6s-.8-7.6 2.6-9.5c3.3-1.9 7.6-.8 9.5 2.6 1.9 3.3.8 7.6-2.6 9.5z"
     fill="url(#J)"
     id="path656" />
  <path
     d="m203 64.3c-3.3 1.9-7.6.8-9.5-2.6-1.9-3.3-.8-7.6 2.6-9.5 3.3-1.9 7.6-.8 9.5 2.6s.7 7.6-2.6 9.5z"
     fill="url(#K)"
     id="path658" />
  <path
     d="m214.1 72c-3.3 1.9-7.6.8-9.5-2.6s-.8-7.6 2.6-9.5c3.3-1.9 7.6-.8 9.5 2.6 1.9 3.3.7 7.6-2.6 9.5z"
     fill="url(#L)"
     id="path660" />
  <path
     d="m203.3 54.2c-3.3 1.9-7.6.8-9.5-2.6s-.8-7.6 2.6-9.5c3.3-1.9 7.6-.8 9.5 2.6 1.9 3.3.7 7.6-2.6 9.5z"
     fill="url(#M)"
     id="path662" />
  <path
     d="m212 52.3c-3.3 1.9-7.6.8-9.5-2.6s-.8-7.6 2.6-9.5c3.3-1.9 7.6-.8 9.5 2.6 1.8 3.3.7 7.6-2.6 9.5z"
     fill="url(#N)"
     id="path664" />
  <path
     d="m211 81.4c-3.3 1.9-7.6.8-9.5-2.6s-.8-7.6 2.6-9.5c3.3-1.9 7.6-.8 9.5 2.6 1.8 3.3.7 7.6-2.6 9.5z"
     fill="url(#O)"
     id="path666" />
  <path
     d="m202.6 74.6c-3.3 1.9-7.6.8-9.5-2.6s-.8-7.6 2.6-9.5c3.3-1.9 7.6-.8 9.5 2.6 1.9 3.3.7 7.6-2.6 9.5z"
     fill="url(#P)"
     id="path668" />
  <path
     d="m212.4 62.2c-3.3 1.9-7.6.8-9.5-2.6s-.8-7.6 2.6-9.5c3.3-1.9 7.6-.8 9.5 2.6s.8 7.6-2.6 9.5z"
     fill="url(#Q)"
     id="path670" />
  <path
     d="m290.7 138c-3.3 1.9-7.6.8-9.5-2.6-1.9-3.3-.8-7.6 2.6-9.5s7.6-.8 9.5 2.6c1.9 3.3.8 7.5-2.6 9.5z"
     fill="url(#R)"
     id="path672" />
  <path
     d="m296.8 154.9c-3.3 1.9-7.6.8-9.5-2.6-1.9-3.3-.8-7.6 2.6-9.5s7.6-.8 9.5 2.6c1.9 3.3.7 7.5-2.6 9.5z"
     fill="url(#S)"
     id="path674" />
  <path
     d="m310.2 160.7c-3.3 1.9-7.6.8-9.5-2.6-1.9-3.3-.8-7.6 2.6-9.5 3.3-1.9 7.6-.8 9.5 2.6 1.9 3.3.7 7.6-2.6 9.5z"
     fill="url(#T)"
     id="path676" />
  <path
     d="m302 158.9c-3.3 1.9-7.6.8-9.5-2.6-1.9-3.3-.8-7.6 2.6-9.5s7.6-.8 9.5 2.6c1.9 3.3.7 7.5-2.6 9.5z"
     fill="url(#U)"
     id="path678" />
  <path
     d="m319.6 158.6c-3.3 1.9-7.6.8-9.5-2.6-1.9-3.3-.8-7.6 2.6-9.5s7.6-.8 9.5 2.6c1.9 3.3.7 7.6-2.6 9.5z"
     fill="url(#V)"
     id="path680" />
  <path
     d="m325.2 153.5c-3.3 1.9-7.6.8-9.5-2.6-1.9-3.3-.8-7.6 2.6-9.5s7.6-.8 9.5 2.6c1.9 3.3.7 7.6-2.6 9.5z"
     fill="url(#W)"
     id="path682" />
  <path
     d="m291.8 147c-3.3 1.9-7.6.8-9.5-2.6-1.9-3.3-.8-7.6 2.6-9.5s7.6-.8 9.5 2.6.7 7.6-2.6 9.5z"
     fill="url(#X)"
     id="path684" />
  <path
     d="m294.7 129.8c-3.3 1.9-7.6.8-9.5-2.6-1.9-3.3-.8-7.6 2.6-9.5 3.3-1.9 7.6-.8 9.5 2.6s.8 7.6-2.6 9.5z"
     fill="url(#Y)"
     id="path686" />
  <path
     d="m323.1 126.9c-3.3 1.9-7.6.8-9.5-2.6s-.8-7.6 2.6-9.5 7.6-.8 9.5 2.6c1.9 3.3.7 7.6-2.6 9.5z"
     fill="url(#Z)"
     id="path688" />
  <path
     d="m329.8 145.2c-3.3 1.9-7.6.8-9.5-2.6-1.9-3.3-.8-7.6 2.6-9.5s7.6-.8 9.5 2.6c1.9 3.3.7 7.6-2.6 9.5z"
     fill="url(#aa)"
     id="path690" />
  <path
     d="m322 150.6c-3.3 1.9-7.6.8-9.5-2.6-1.9-3.3-.8-7.6 2.6-9.5s7.6-.8 9.5 2.6c1.9 3.3.7 7.6-2.6 9.5z"
     fill="url(#ab)"
     id="path692" />
  <path
     d="m328.7 137.1c-3.3 1.9-7.6.8-9.5-2.6-1.9-3.3-.8-7.6 2.6-9.5s7.6-.8 9.5 2.6c1.9 3.3.8 7.5-2.6 9.5z"
     fill="url(#ac)"
     id="path694" />
  <path
     d="m319.3 139.8c-3.3 1.9-7.6.8-9.5-2.6-1.9-3.3-.8-7.6 2.6-9.5 3.3-1.9 7.6-.8 9.5 2.6 1.9 3.3.8 7.6-2.6 9.5z"
     fill="url(#ad)"
     id="path696" />
  <path
     d="m301.9 134c-3.3 1.9-7.6.8-9.5-2.6-1.9-3.3-.8-7.6 2.6-9.5s7.6-.8 9.5 2.6c1.9 3.3.7 7.6-2.6 9.5z"
     fill="url(#ae)"
     id="path698" />
  <path
     d="m312.2 140.7c-3.3 1.9-7.6.8-9.5-2.6-1.9-3.3-.8-7.6 2.6-9.5 3.3-1.9 7.6-.8 9.5 2.6 1.9 3.3.8 7.6-2.6 9.5z"
     fill="url(#af)"
     id="path700" />
  <path
     d="m302.2 123.9c-3.3 1.9-7.6.8-9.5-2.6s-.8-7.6 2.6-9.5 7.6-.8 9.5 2.6c1.9 3.3.7 7.6-2.6 9.5z"
     fill="url(#ag)"
     id="path702" />
  <path
     d="m310.9 122c-3.3 1.9-7.6.8-9.5-2.6s-.8-7.6 2.6-9.5c3.3-1.9 7.6-.8 9.5 2.6s.7 7.6-2.6 9.5z"
     fill="url(#ah)"
     id="path704" />
  <path
     d="m301.5 144.3c-3.3 1.9-7.6.8-9.5-2.6-1.9-3.3-.8-7.6 2.6-9.5s7.6-.8 9.5 2.6.8 7.6-2.6 9.5z"
     fill="url(#ai)"
     id="path706" />
  <path
     d="m311.1 151.1c-3.3 1.9-7.6.8-9.5-2.6-1.9-3.3-.8-7.6 2.6-9.5s7.6-.8 9.5 2.6c1.9 3.3.8 7.6-2.6 9.5z"
     fill="url(#aj)"
     id="path708" />
  <path
     d="m311.4 131.9c-3.3 1.9-7.6.8-9.5-2.6-1.9-3.3-.8-7.6 2.6-9.5s7.6-.8 9.5 2.6c1.9 3.3.7 7.5-2.6 9.5z"
     fill="url(#ak)"
     id="path710" />
  <path
     d="m152.6 101.8c-3.3 1.9-7.6.8-9.5-2.6s-.8-7.6 2.6-9.5c3.3-1.9 7.6-.8 9.5 2.6s.7 7.6-2.6 9.5z"
     fill="url(#al)"
     id="path712" />
  <path
     d="m33 132.1c-3.3 1.9-7.6.8-9.5-2.6-1.9-3.3-.8-7.6 2.6-9.5 3.3-1.9 7.6-.8 9.5 2.6 1.9 3.3.7 7.6-2.6 9.5z"
     fill="url(#am)"
     id="path714" />
  <path
     d="m262.6 39.8c-3.3 1.9-7.6.8-9.5-2.6s-.8-7.6 2.6-9.5c3.3-1.9 7.6-.8 9.5 2.6 1.9 3.3.8 7.6-2.6 9.5z"
     fill="url(#an)"
     id="path716" />
  <path
     d="m258.4 109.6c-3.3 1.9-7.6.8-9.5-2.6s-.8-7.6 2.6-9.5c3.3-1.9 7.6-.8 9.5 2.6 1.9 3.3.7 7.5-2.6 9.5z"
     fill="url(#ao)"
     id="path718" />
  <path
     d="m150.1 170.4c-3.3 1.9-7.6.8-9.5-2.6-1.9-3.3-.8-7.6 2.6-9.5 3.3-1.9 7.6-.8 9.5 2.6 1.9 3.3.8 7.5-2.6 9.5z"
     fill="url(#ap)"
     id="path720" />
  <path
     d="m277.1 30.5c-.3 0-.5-.1-.7-.2s-.2-.4-.2-.8h-.2c-.1.4-.3.7-.5.9s-.6.3-1 .3c-.6 0-1-.2-1.3-.5s-.4-.8-.4-1.3c0-.6.2-1.1.6-1.4s1-.5 1.8-.5h1v-.6c0-.4-.1-.7-.3-.9s-.5-.3-.8-.3-.5.1-.8.2c-.2.1-.4.3-.6.6l-.7-.7c.2-.4.5-.6.9-.9.4-.2.8-.3 1.3-.3.8 0 1.3.2 1.7.5s.6.9.6 1.6v3.2h.6v1zm-2.3-.8c.2 0 .3 0 .5-.1.1-.1.3-.1.4-.2s.2-.2.3-.3.1-.3.1-.4v-.9h-1c-.8 0-1.2.3-1.2.8v.3c0 .3.1.5.2.6.2.2.5.2.7.2z"
     id="path748" />
  <path
     d="m279 21.7h1.2v3.7h.1c.1-.4.3-.6.6-.9.3-.2.6-.3 1-.3.7 0 1.3.3 1.7.9s.5 1.4.5 2.4-.2 1.9-.5 2.4c-.4.6-.9.9-1.7.9-.4 0-.7-.1-1-.3s-.5-.5-.6-.9h-.1v1h-1.2zm2.5 7.9c.4 0 .8-.1 1-.4s.4-.6.4-1.1v-1.4c0-.5-.1-.9-.4-1.1-.2-.3-.6-.4-1-.4s-.6.1-.9.3c-.2.2-.3.4-.3.8v2.4c0 .3.1.6.3.8.3 0 .5.1.9.1z"
     id="path750" />
  <path
     d="m287.3 30.7c-.5 0-1-.1-1.4-.3s-.7-.5-1-.9l.8-.7c.2.3.4.5.7.7.2.1.5.2.9.2.3 0 .6-.1.8-.2s.3-.4.3-.7c0-.2-.1-.4-.2-.5s-.3-.2-.6-.3l-.5-.1c-.6-.1-1.1-.3-1.4-.6s-.4-.7-.4-1.2c0-.6.2-1.1.6-1.4s.9-.5 1.5-.5c.5 0 .9.1 1.2.2s.6.4.9.7l-.7.7c-.2-.2-.4-.4-.6-.5s-.5-.2-.8-.2c-.6 0-.9.3-.9.9 0 .2.1.4.2.6.1.1.3.2.6.2l.5.1c.6.1 1.1.3 1.4.6s.4.7.4 1.2c0 .6-.2 1.1-.6 1.5-.5.3-1 .5-1.7.5z"
     id="path752" />
  <path
     d="m293 30.7c-.4 0-.8-.1-1.1-.2s-.6-.3-.8-.6-.4-.6-.5-1-.2-.9-.2-1.5.1-1.1.2-1.5.3-.8.5-1c.2-.3.5-.5.8-.6s.7-.2 1.1-.2.8.1 1.1.2.6.3.8.6.4.6.5 1 .2.9.2 1.5-.1 1.1-.2 1.5-.3.8-.5 1c-.2.3-.5.5-.8.6s-.7.2-1.1.2zm0-1.1c.4 0 .7-.1 1-.4s.3-.6.3-1.1v-1.5c0-.5-.1-.9-.3-1.1s-.5-.4-1-.4-.7.1-1 .4-.3.6-.3 1.1v1.5c0 .5.1.9.3 1.1s.6.4 1 .4z"
     id="path754" />
  <path
     d="m296.9 30.5v-6.2h1.2v1.2h.1c.1-.4.2-.7.5-.9s.5-.3.9-.3h.3v1.3h-.5c-.4 0-.8.1-1 .2s-.4.4-.4.8v3.9z"
     id="path756" />
  <path
     d="m301.1 21.7h1.2v3.7h.1c.1-.4.3-.6.6-.9.3-.2.6-.3 1-.3.7 0 1.3.3 1.7.9s.5 1.4.5 2.4-.2 1.9-.5 2.4c-.4.6-.9.9-1.7.9-.4 0-.7-.1-1-.3s-.5-.5-.6-.9h-.1v1h-1.2zm2.4 7.9c.4 0 .8-.1 1-.4s.4-.6.4-1.1v-1.4c0-.5-.1-.9-.4-1.1-.2-.3-.6-.4-1-.4s-.6.1-.9.3c-.2.2-.3.4-.3.8v2.4c0 .3.1.6.3.8.3 0 .5.1.9.1z"
     id="path758" />
  <path
     d="m309.8 30.7c-.4 0-.8-.1-1.1-.2s-.6-.3-.8-.6-.4-.6-.5-1-.2-.9-.2-1.5.1-1.1.2-1.5.3-.8.5-1c.2-.3.5-.5.8-.6s.7-.2 1.1-.2c.8 0 1.4.3 1.9.8s.7 1.4.7 2.5v.3h-3.8v.4c0 .5.1.9.4 1.1s.6.4 1 .4.7-.1.9-.2.5-.4.6-.7l.7.7c-.2.4-.5.7-.9.9s-1 .4-1.5.4zm-.1-5.6c-.4 0-.7.1-1 .4s-.3.6-.3 1.1v.2h2.5v-.2c0-1-.4-1.5-1.2-1.5z"
     id="path760" />
  <path
     d="m317 29.5h-.1c-.1.4-.3.6-.6.9-.3.2-.6.3-1 .3-.7 0-1.3-.3-1.7-.9s-.5-1.4-.5-2.4.2-1.9.5-2.4c.4-.6.9-.9 1.7-.9.4 0 .7.1 1 .3s.5.5.6.9h.1v-3.7h1.2v8.9h-1.2zm-1.2.1c.4 0 .6-.1.9-.3.2-.2.3-.4.3-.8v-2.4c0-.3-.1-.6-.3-.8s-.5-.3-.9-.3-.8.1-1 .4-.4.6-.4 1.1v1.4c0 .5.1.9.4 1.1.2.5.6.6 1 .6z"
     id="path762" />
  <path
     d="m273.1 44.9v-6.2h1.2v1h.1c.2-.8.8-1.2 1.5-1.2.6 0 1 .2 1.3.6s.5.9.5 1.7v4.1h-1.2v-4c0-.4-.1-.8-.2-1s-.4-.3-.8-.3c-.3 0-.6.1-.8.3s-.3.5-.3.8v4.2z"
     id="path764" />
  <path
     d="m281.7 45.1c-.4 0-.8-.1-1.1-.2s-.6-.3-.8-.6-.4-.6-.5-1-.2-.9-.2-1.5.1-1.1.2-1.5.3-.8.5-1c.2-.3.5-.5.8-.6s.7-.2 1.1-.2c.8 0 1.4.3 1.9.8s.7 1.3.7 2.5v.3h-3.8v.4c0 .5.1.9.4 1.1s.6.4 1 .4.7-.1.9-.2.5-.4.6-.7l.7.7c-.2.4-.5.7-.9.9s-1 .4-1.5.4zm-.1-5.6c-.4 0-.7.1-1 .4s-.3.6-.3 1.1v.2h2.5v-.2c0-1-.4-1.5-1.2-1.5z"
     id="path766" />
  <path
     d="m288.8 43.9h-.2c-.2.8-.8 1.2-1.5 1.2-.5 0-1-.2-1.3-.6s-.5-.9-.5-1.7v-4.2h1.2v4c0 .9.4 1.4 1.1 1.4.3 0 .6-.1.8-.3s.3-.5.3-.8v-4.2h1.2v6.2h-1.2v-1z"
     id="path768" />
  <path
     d="m293.2 44.9c-.4 0-.8-.1-.9-.3-.2-.2-.3-.5-.3-.9v-4h-.9v-1h.5c.2 0 .3 0 .4-.1s.1-.2.1-.4v-1.2h1.1v1.7h1.2v1h-1.2v4.2h1.1v1z"
     id="path770" />
  <path
     d="m295.6 44.9v-6.2h1.2v1.2h.1c.1-.4.2-.7.5-.9s.5-.3.9-.3h.3v1.3h-.5c-.4 0-.8.1-1 .2s-.4.4-.4.8v3.9z"
     id="path772" />
  <path
     d="m302 45.1c-.4 0-.8-.1-1.1-.2s-.6-.3-.8-.6-.4-.6-.5-1-.2-.9-.2-1.5.1-1.1.2-1.5.3-.8.5-1c.2-.3.5-.5.8-.6s.7-.2 1.1-.2.8.1 1.1.2.6.3.8.6.4.6.5 1 .2.9.2 1.5-.1 1.1-.2 1.5-.3.8-.5 1c-.2.3-.5.5-.8.6-.4.1-.7.2-1.1.2zm0-1.1c.4 0 .7-.1 1-.4s.3-.6.3-1.1v-1.5c0-.5-.1-.9-.3-1.1s-.5-.4-1-.4-.7.1-1 .4-.3.6-.3 1.1v1.5c0 .5.1.9.3 1.1s.6.4 1 .4z"
     id="path774" />
  <path
     d="m305.9 44.9v-6.2h1.2v1h.1c.2-.8.8-1.2 1.5-1.2.6 0 1 .2 1.3.6s.5.9.5 1.7v4.1h-1.2v-4c0-.4-.1-.8-.2-1s-.4-.3-.8-.3c-.3 0-.6.1-.8.3s-.3.5-.3.8v4.2z"
     id="path776" />
  <path
     d="m164.1 160.9c-.3 0-.5-.1-.7-.2-.2-.2-.2-.4-.2-.8h-.2c-.1.4-.3.7-.6.9s-.6.3-1 .3c-.6 0-1-.2-1.3-.5s-.4-.8-.4-1.3c0-.6.2-1.1.6-1.4s1-.5 1.8-.5h1v-.6c0-.4-.1-.7-.3-.9s-.5-.3-.8-.3-.6.1-.8.2-.4.3-.6.6l-.7-.7c.2-.4.5-.6.9-.9s.8-.3 1.3-.3c.8 0 1.3.2 1.7.6s.6.9.6 1.6v3.2h.6v1zm-2.3-.9c.2 0 .3 0 .5-.1.1-.1.3-.1.4-.2l.3-.3c.1-.1.1-.3.1-.4v-.9h-1c-.8 0-1.2.3-1.2.8v.3c0 .3.1.5.2.6.2.2.5.2.7.2z"
     id="path778" />
  <path
     d="m166.1 152h1.2v3.7h.1c.1-.4.3-.6.6-.9.3-.2.6-.3.9-.3.7 0 1.3.3 1.7.9s.5 1.4.5 2.4-.2 1.9-.5 2.4c-.4.6-.9.9-1.7.9-.4 0-.7-.1-.9-.3-.3-.2-.4-.5-.6-.9h-.1v1h-1.2zm2.4 7.9c.4 0 .8-.1 1-.4s.4-.6.4-1.1v-1.4c0-.5-.1-.9-.4-1.1-.2-.3-.6-.4-1-.4s-.6.1-.9.3c-.2.2-.3.4-.3.8v2.4c0 .3.1.6.3.8s.5.1.9.1z"
     id="path780" />
  <path
     d="m174.3 161c-.5 0-1-.1-1.4-.3s-.7-.5-1-.9l.8-.7c.2.3.4.5.7.7.2.1.5.2.9.2.3 0 .6-.1.8-.2s.3-.4.3-.7c0-.2-.1-.4-.2-.6s-.3-.2-.6-.3l-.5-.1c-.6-.1-1.1-.3-1.4-.6s-.4-.7-.4-1.2c0-.6.2-1.1.6-1.4s.9-.5 1.6-.5c.5 0 .9.1 1.2.2s.6.4.9.7l-.7.7c-.2-.2-.4-.4-.6-.5s-.5-.2-.8-.2c-.6 0-.9.3-.9.9 0 .2.1.4.2.6s.3.2.6.2l.6.1c.6.1 1.1.3 1.4.6s.4.7.4 1.2c0 .6-.2 1.1-.6 1.5-.6.4-1.2.6-1.9.6z"
     id="path782" />
  <path
     d="m180 161c-.4 0-.8-.1-1.1-.2s-.6-.3-.8-.6-.4-.6-.5-1-.2-.9-.2-1.5.1-1.1.2-1.5.3-.8.5-1c.2-.3.5-.5.8-.6s.7-.2 1.1-.2.8.1 1.1.2.6.3.8.6.4.6.5 1 .2.9.2 1.5-.1 1.1-.2 1.5-.3.8-.5 1c-.2.3-.5.5-.8.6s-.7.2-1.1.2zm0-1c.4 0 .7-.1.9-.4s.3-.6.3-1.1v-1.5c0-.5-.1-.9-.3-1.1s-.5-.4-.9-.4-.7.1-.9.4-.3.6-.3 1.1v1.5c0 .5.1.9.3 1.1s.5.4.9.4z"
     id="path784" />
  <path
     d="m183.9 160.9v-6.2h1.2v1.2h.1c.1-.4.2-.7.5-.9s.6-.3.9-.3h.3v1.3h-.5c-.4 0-.8.1-1 .2s-.4.4-.4.8v3.9z"
     id="path786" />
  <path
     d="m188.1 152h1.2v3.7h.1c.1-.4.3-.6.6-.9.3-.2.6-.3.9-.3.7 0 1.3.3 1.7.9s.5 1.4.5 2.4-.2 1.9-.5 2.4c-.4.6-.9.9-1.7.9-.4 0-.7-.1-.9-.3-.3-.2-.4-.5-.6-.9h-.1v1h-1.2zm2.4 7.9c.4 0 .8-.1 1-.4s.4-.6.4-1.1v-1.4c0-.5-.1-.9-.4-1.1-.2-.3-.6-.4-1-.4s-.6.1-.9.3c-.2.2-.3.4-.3.8v2.4c0 .3.1.6.3.8s.5.1.9.1z"
     id="path788" />
  <path
     d="m196.8 161c-.4 0-.8-.1-1.1-.2s-.6-.3-.8-.6-.4-.6-.6-1c-.1-.4-.2-.9-.2-1.5s.1-1.1.2-1.5.3-.8.5-1c.2-.3.5-.5.8-.6s.7-.2 1.1-.2c.8 0 1.4.3 1.9.8s.7 1.4.7 2.5v.3h-3.8v.4c0 .5.1.9.4 1.1s.6.4 1 .4.7-.1.9-.2.4-.4.6-.7l.7.7c-.2.4-.5.7-.9.9s-.9.4-1.4.4zm-.1-5.5c-.4 0-.7.1-1 .4s-.3.6-.3 1.1v.2h2.5v-.2c0-1-.4-1.5-1.2-1.5z"
     id="path790" />
  <path
     d="m204 159.8h-.1c-.1.4-.3.6-.6.9-.3.2-.6.3-.9.3-.7 0-1.3-.3-1.7-.9s-.5-1.4-.5-2.4.2-1.9.5-2.4c.4-.6.9-.9 1.7-.9.4 0 .7.1.9.3.3.2.4.5.6.9h.1v-3.6h1.2v8.9h-1.2zm-1.2.1c.4 0 .6-.1.9-.3.2-.2.3-.4.3-.8v-2.4c0-.3-.1-.6-.3-.8s-.5-.3-.9-.3-.8.1-1 .4-.4.6-.4 1.1v1.4c0 .5.1.9.4 1.1.2.5.6.6 1 .6z"
     id="path792" />
  <path
     d="m160.1 175.3v-6.3h1.2v1h.1c.2-.8.8-1.2 1.5-1.2.6 0 1 .2 1.3.6s.5.9.5 1.7v4.1h-1.2v-4c0-.4-.1-.8-.2-1s-.4-.4-.8-.4c-.3 0-.6.1-.8.3s-.3.5-.3.8v4.2z"
     id="path794" />
  <path
     d="m168.7 175.4c-.4 0-.8-.1-1.1-.2s-.6-.3-.8-.6-.4-.6-.6-1c-.1-.4-.2-.9-.2-1.5s.1-1.1.2-1.5.3-.8.5-1c.2-.3.5-.5.8-.6s.7-.2 1.1-.2c.8 0 1.4.3 1.9.8s.7 1.4.7 2.5v.3h-3.8v.4c0 .5.1.9.4 1.1s.6.4 1 .4.7-.1.9-.2.4-.4.6-.7l.7.7c-.2.4-.5.7-.9.9-.4.3-.9.4-1.4.4zm-.1-5.5c-.4 0-.7.1-1 .4s-.3.6-.3 1.1v.2h2.5v-.2c0-1-.4-1.5-1.2-1.5z"
     id="path796" />
  <path
     d="m175.8 174.2h-.2c-.2.8-.8 1.2-1.6 1.2-.6 0-1-.2-1.3-.6s-.5-.9-.5-1.7v-4.1h1.2v4c0 .9.4 1.4 1.1 1.4.3 0 .6-.1.8-.3s.3-.5.3-.8v-4.3h1.2v6.2h-1.2v-1z"
     id="path798" />
  <path
     d="m180.2 175.3c-.4 0-.8-.1-.9-.3-.2-.2-.3-.5-.3-.9v-4h-.9v-1h.5c.2 0 .3-.1.4-.1.1-.1.1-.2.1-.4v-1.1h1.1v1.7h1.2v1h-1.2v4.2h1.1v1z"
     id="path800" />
  <path
     d="m182.6 175.3v-6.3h1.2v1.2h.1c.1-.4.2-.7.5-.9s.6-.3.9-.3h.3v1.3h-.5c-.4 0-.8.1-1 .2s-.4.4-.4.8v3.9z"
     id="path802" />
  <path
     d="m189 175.4c-.4 0-.8-.1-1.1-.2s-.6-.3-.8-.6-.4-.6-.5-1-.2-.9-.2-1.5.1-1.1.2-1.5.3-.8.5-1c.2-.3.5-.5.8-.6s.7-.2 1.1-.2.8.1 1.1.2.6.3.8.6.4.6.5 1 .2.9.2 1.5-.1 1.1-.2 1.5-.3.8-.5 1c-.2.3-.5.5-.8.6-.4.1-.7.2-1.1.2zm0-1c.4 0 .7-.1.9-.4s.3-.6.3-1.1v-1.5c0-.5-.1-.9-.3-1.1s-.5-.4-.9-.4-.7.1-.9.4-.3.6-.3 1.1v1.5c0 .5.1.9.3 1.1s.5.4.9.4z"
     id="path804" />
  <path
     d="m192.9 175.3v-6.3h1.2v1h.1c.2-.8.8-1.2 1.5-1.2.6 0 1 .2 1.3.6s.5.9.5 1.7v4.1h-1.2v-4c0-.4-.1-.8-.2-1s-.4-.4-.8-.4c-.3 0-.6.1-.8.3s-.3.5-.3.8v4.2z"
     id="path806" />
  <path
     d="m16.9 140c-.5 0-.7-.2-.7-.6v-.2c0-.4.2-.6.7-.6s.7.2.7.6v.2c.1.4-.2.6-.7.6zm-.6 1.2h1.2v6.2h-1.2z"
     id="path808" />
  <path
     d="m19.2 147.4v-6.2h1.2v1h.1c.2-.8.8-1.2 1.5-1.2.6 0 1 .2 1.3.6s.5.9.5 1.7v4.1h-1.2v-4c0-.4-.1-.8-.2-1s-.4-.4-.8-.4c-.3 0-.6.1-.8.3s-.3.5-.3.8v4.2z"
     id="path810" />
  <path
     d="m26.1 140c-.5 0-.7-.2-.7-.6v-.2c0-.4.2-.6.7-.6s.7.2.7.6v.2c.1.4-.2.6-.7.6zm-.6 1.2h1.2v6.2h-1.2z"
     id="path812" />
  <path
     d="m30 147.4c-.4 0-.8-.1-.9-.3-.2-.2-.3-.5-.3-.9v-4h-.9v-1h.5c.2 0 .3-.1.4-.1s.1-.2.1-.4v-1.1h1.1v1.7h1.2v1h-1.2v4.2h1.1v1z"
     id="path814" />
  <path
     d="m33 140c-.5 0-.7-.2-.7-.6v-.2c0-.4.2-.6.7-.6s.7.2.7.6v.2c.1.4-.2.6-.7.6zm-.6 1.2h1.2v6.2h-1.2z"
     id="path816" />
  <path
     d="m39.3 147.4c-.3 0-.5-.1-.7-.2s-.2-.4-.2-.8h-.1c-.1.4-.3.7-.5.9s-.6.3-1 .3c-.6 0-1-.2-1.3-.5s-.4-.8-.4-1.3c0-.6.2-1.1.6-1.4s1-.5 1.8-.5h1v-.6c0-.4-.1-.7-.3-.9s-.5-.3-.8-.3-.5.1-.8.2-.4.3-.6.6l-.7-.7c.2-.4.5-.6.8-.9.4-.2.8-.3 1.3-.3.8 0 1.3.2 1.7.6s.6.9.6 1.6v3.2h.6v1zm-2.2-.8c.2 0 .3 0 .5-.1s.3-.1.4-.2.2-.2.3-.3.1-.3.1-.4v-.9h-1c-.8 0-1.2.3-1.2.8v.3c0 .3.1.5.2.6.2.2.4.2.7.2z"
     id="path818" />
  <path
     d="m42.5 147.4c-.4 0-.7-.1-.9-.3s-.3-.5-.3-.9v-7.7h1.2v7.9h.7v1z"
     id="path820" />
  <path
     d="m10.8 161.8v-6.2h1.2v1h.1c.2-.8.8-1.2 1.5-1.2.6 0 1 .2 1.3.6s.5.9.5 1.7v4.1h-1.2v-4c0-.4-.1-.8-.2-1s-.4-.4-.8-.4c-.3 0-.6.1-.8.3s-.3.5-.3.8v4.2z"
     id="path822" />
  <path
     d="m19.4 162c-.4 0-.8-.1-1.1-.2s-.6-.3-.8-.6-.4-.6-.5-1-.2-.9-.2-1.5.1-1.1.2-1.5.3-.8.5-1 .5-.5.8-.6.7-.2 1.1-.2c.8 0 1.4.3 1.9.8s.7 1.4.7 2.5v.3h-4v.4c0 .5.1.9.4 1.1s.6.4 1 .4.7-.1.9-.2.5-.4.6-.7l.7.7c-.2.4-.5.7-.9.9-.3.3-.8.4-1.3.4zm-.1-5.6c-.4 0-.7.1-1 .4s-.3.6-.3 1.1v.2h2.5v-.2c0-1-.4-1.5-1.2-1.5z"
     id="path824" />
  <path
     d="m26.5 160.8h-.2c-.2.8-.8 1.2-1.5 1.2-.5 0-1-.2-1.3-.6s-.5-.9-.5-1.7v-4.1h1.2v4c0 .9.4 1.4 1.1 1.4.3 0 .6-.1.8-.3s.3-.5.3-.8v-4.2h1.2v6.2h-1.2c.1-.1.1-1.1.1-1.1z"
     id="path826" />
  <path
     d="m31 161.8c-.4 0-.8-.1-.9-.3-.2-.2-.3-.5-.3-.9v-4h-.9v-1h.5c.2 0 .3-.1.4-.1s.1-.2.1-.4v-1.1h1.1v1.7h1.2v1h-1.2v4.2h1v1z"
     id="path828" />
  <path
     d="m33.4 161.8v-6.2h1.2v1.2h.1c.1-.4.2-.7.5-.9s.5-.3.9-.3h.3v1.3h-.4c-.4 0-.8.1-1 .2s-.3.4-.3.8v3.9z"
     id="path830" />
  <path
     d="m39.7 162c-.4 0-.8-.1-1.1-.2s-.6-.3-.8-.6-.4-.6-.5-1-.2-.9-.2-1.5.1-1.1.2-1.5.3-.8.5-1 .5-.5.8-.6.7-.2 1.1-.2.8.1 1.1.2.6.3.8.6.4.6.5 1 .2.9.2 1.5-.1 1.1-.2 1.5-.3.8-.5 1-.5.5-.8.6-.7.2-1.1.2zm0-1.1c.4 0 .7-.1 1-.4s.3-.6.3-1.1v-1.4c0-.5-.1-.9-.3-1.1s-.5-.4-1-.4-.7.1-1 .4-.3.6-.3 1.1v1.5c0 .5.1.9.3 1.1s.6.3 1 .3z"
     id="path832" />
  <path
     d="m43.6 161.8v-6.2h1.2v1h.2c.2-.8.8-1.2 1.5-1.2.6 0 1 .2 1.3.6s.5.9.5 1.7v4.1h-1.3v-4c0-.4-.1-.8-.2-1s-.4-.4-.8-.4c-.3 0-.6.1-.8.3s-.3.5-.3.8v4.2z"
     id="path834" />
  <path
     d="m119.2 142.7 12 9.7"
     fill="none"
     stroke="#000"
     stroke-miterlimit="10"
     stroke-width="2"
     id="path836" />
  <path
     d="m126.9 155.4 9.9 1.6-3.6-9.4z"
     id="path838" />
  <path
     d="m40.5 125.2h18.1"
     fill="none"
     stroke="#000"
     stroke-miterlimit="10"
     stroke-width="2"
     id="path840" />
  <path
     d="m57.1 130.2 8.7-5-8.7-5z"
     id="path842" />
  <path
     d="m153.5 50.7h18.1"
     fill="none"
     stroke="#000"
     stroke-miterlimit="10"
     stroke-width="2"
     id="path844"
     style="fill:#ffffff" />
  <path
     d="m170.1 55.7 8.7-5-8.7-5z"
     id="path846" />
  <path
     d="m97.2 61.6-.2 22.8"
     fill="none"
     stroke="#000"
     stroke-miterlimit="10"
     stroke-width="2"
     id="path848" />
  <path
     d="m92.1 82.9 4.9 8.6 5-8.6z"
     id="path850" />
  <path
     d="m119.2 112.2 15.2-7.9"
     fill="none"
     stroke="#000"
     stroke-miterlimit="10"
     stroke-width="2"
     id="path852" />
  <path
     d="m135.4 109.4 5.4-8.4-10-.4z"
     id="path854" />
  <path
     d="m159.2 90.5 15.2-8"
     fill="none"
     stroke="#000"
     stroke-miterlimit="10"
     stroke-width="2"
     id="path856" />
  <path
     d="m175.4 87.6 5.4-8.4-10-.4z"
     id="path858" />
  <path
     d="m230 50.2 15.1-7.9"
     fill="none"
     stroke="#000"
     stroke-miterlimit="10"
     stroke-width="2"
     id="path860" />
  <path
     d="m246.2 47.4 5.3-8.4-10-.5z"
     id="path862" />
  <path
     d="m230 83.5 11.9 9.7"
     fill="none"
     stroke="#000"
     stroke-miterlimit="10"
     stroke-width="2"
     id="path864" />
  <path
     d="m237.6 96.1 9.9 1.6-3.6-9.3z"
     id="path866" />
  <path
     d="m263.5 108.2 11.9 9.7"
     fill="none"
     stroke="#000"
     stroke-miterlimit="10"
     stroke-width="2"
     id="path868" />
  <path
     d="m271.1 120.9 9.9 1.6-3.5-9.4z"
     id="path870" />
  <g
     fill="none"
     stroke="#f90000"
     stroke-miterlimit="10"
     stroke-width="1.536"
     id="g880">
    <path
       d="m139 171.4 14.4-14.4"
       id="path872" />
    <path
       d="m153.4 171.4-14.4-14.4"
       id="path874" />
    <path
       d="m252.5 41.3 14.4-14.4"
       id="path876" />
    <path
       d="m266.9 41.3-14.4-14.4"
       id="path878" />
  </g>
  <text
     xml:space="preserve"
     style="font-style:normal;font-weight:normal;font-size:11.0915px;line-height:1.25;font-family:sans-serif;fill:#ffffff;fill-opacity:1;stroke:none;stroke-width:0.277287"
     x="69.212173"
     y="54.125626"
     id="text1100"
     transform="scale(0.97803424,1.0224591)"><tspan
       sodipodi:role="line"
       id="tspan1098"
       x="69.212173"
       y="54.125626"
       style="stroke-width:0.277287">uranium nuclei</tspan></text>
  <path
     style="fill:#ffffff;fill-opacity:1;stroke:#4d4d4d;stroke-width:0.455671;stroke-opacity:0.752941"
     d="m 157.52535,49.557081 c 2.18025,-0.08335 5.87119,-0.08374 8.20209,-8.7e-4 2.33091,0.08287 0.54707,0.151061 -3.96408,0.151539 -4.51114,4.78e-4 -6.41825,-0.06732 -4.23801,-0.150669 z"
     id="path2501" />
  <path
     style="fill:#ffffff;fill-opacity:1;stroke:#4d4d4d;stroke-width:0.455671;stroke-opacity:0.752941"
     d="m 170.19329,53.332768 v -2.06973 h -8.20209 c -7.31541,0 -8.20209,-0.08121 -8.20209,-0.751189 0,-0.661419 0.47162,-0.717907 3.9464,-0.472688 2.17052,0.153176 5.86146,0.152706 8.20209,-10e-4 l 4.25569,-0.279546 v -1.791933 c 0,-0.985563 0.15824,-1.723582 0.35165,-1.640042 1.08821,0.470024 7.39476,4.119445 7.39476,4.279135 0,0.205739 -2.14334,1.56878 -5.58198,3.54981 l -2.16443,1.246956 z"
     id="path2503" />
  <path
     style="fill:#ffffff;fill-opacity:1;stroke:#4d4d4d;stroke-width:0.0569589;stroke-opacity:0.752941"
     d="m 292.24625,30.558974 c -0.70592,-0.185037 -0.93945,-0.364243 -1.32888,-1.019745 -0.31509,-0.530382 -0.46922,-1.233981 -0.46922,-2.141983 0,-1.660663 0.57289,-2.788967 1.57293,-3.097846 0.7404,-0.228686 1.40326,-0.210801 2.11952,0.05719 0.52157,0.195141 1.02315,0.835463 1.22518,1.564074 0.40346,1.45499 0.17332,3.157745 -0.54532,4.034749 -0.24881,0.30364 -0.62417,0.507498 -1.15146,0.625347 -0.52647,0.117669 -0.91333,0.111745 -1.42275,-0.02178 z m 1.37723,-1.050659 c 0.0992,-0.04146 0.27312,-0.170817 0.38639,-0.287453 0.30135,-0.310285 0.3417,-0.571358 0.31272,-2.022992 -0.0271,-1.35843 -0.0611,-1.511805 -0.39818,-1.796002 -0.28044,-0.236461 -0.51091,-0.311459 -0.95715,-0.311459 -0.43535,0 -0.6548,0.07885 -0.92967,0.334016 -0.32628,0.302905 -0.34758,0.396116 -0.36949,1.616804 -0.0247,1.378926 0.0384,1.843667 0.28931,2.129455 0.38344,0.436707 1.08748,0.579383 1.66607,0.337631 z"
     id="path2568" />
  <path
     style="fill:#ffffff;fill-opacity:1;stroke:#4d4d4d;stroke-width:0.0569589;stroke-opacity:0.752941"
     d="m 286.55404,30.587607 c -0.58032,-0.12624 -1.09353,-0.438352 -1.43992,-0.875706 l -0.17002,-0.214675 0.37051,-0.317261 0.37051,-0.317261 0.26535,0.283683 c 0.41803,0.446903 0.6192,0.529216 1.29342,0.529216 0.47994,0 0.60693,-0.01996 0.80681,-0.12684 0.28282,-0.151217 0.38775,-0.399046 0.34728,-0.8202 -0.0454,-0.471971 -0.32753,-0.660755 -1.27781,-0.854884 -0.89577,-0.182995 -1.38044,-0.458 -1.63027,-0.92503 -0.10668,-0.19943 -0.12566,-0.325241 -0.12566,-0.832979 0,-0.539846 0.015,-0.626458 0.15384,-0.889684 0.42986,-0.814838 1.55039,-1.179265 2.71806,-0.883985 0.45782,0.115773 0.58936,0.188436 1.02979,0.568882 l 0.19936,0.172203 -0.32213,0.325166 -0.32212,0.325166 -0.25854,-0.211858 c -0.63786,-0.522674 -1.63323,-0.585946 -1.9365,-0.123095 -0.23497,0.358612 -0.14514,1.137544 0.14937,1.29516 0.0658,0.03521 0.43764,0.126026 0.82633,0.201806 1.10726,0.215876 1.56142,0.469242 1.81421,1.012118 0.17701,0.38013 0.18799,1.085792 0.0236,1.518393 -0.1973,0.519259 -0.3877,0.734502 -0.82862,0.936773 -0.68281,0.313239 -1.32696,0.383668 -2.05686,0.224892 z"
     id="path2570" />
  <path
     style="fill:#ffffff;fill-opacity:1;stroke:#4d4d4d;stroke-width:0.0569589;stroke-opacity:0.752941"
     d="m 281.50439,30.727814 c -0.51906,-0.130725 -0.86568,-0.412486 -1.0667,-0.867094 -0.19097,-0.431869 -0.28519,-0.361305 -0.28519,0.213596 v 0.48415 h -0.56959 -0.56959 v -4.414317 -4.414317 h 0.56959 0.56959 v 1.851165 c 0,1.999184 0.0198,2.115448 0.27167,1.596978 0.32656,-0.672154 0.855,-0.975208 1.6136,-0.925376 0.90991,0.05977 1.56053,0.612256 1.84874,1.569885 0.13192,0.438353 0.21398,1.365106 0.17597,1.987397 -0.0673,1.101778 -0.30981,1.90215 -0.71676,2.36564 -0.38656,0.44027 -1.25357,0.700321 -1.84133,0.552293 z m 0.71161,-1.258189 c 0.2611,-0.133202 0.52281,-0.516735 0.64979,-0.952274 0.12796,-0.438897 0.0889,-2.214805 -0.0559,-2.544078 -0.22623,-0.514259 -0.66006,-0.778382 -1.28494,-0.782293 -0.67133,-0.0042 -1.15552,0.320517 -1.23058,0.825283 -0.0198,0.132992 -0.0277,0.882937 -0.0177,1.666545 0.0173,1.353042 0.0246,1.434734 0.14355,1.623329 0.11297,0.179071 0.16336,0.205203 0.51263,0.265878 0.4862,0.08446 0.99678,0.04372 1.28318,-0.10239 z"
     id="path2572" />
  <path
     style="fill:#ffffff;fill-opacity:1;stroke:#4d4d4d;stroke-width:0.0569589;stroke-opacity:0.752941"
     d="m 273.93376,30.592927 c -0.45897,-0.123584 -0.8701,-0.51611 -1.01557,-0.969622 -0.0897,-0.279527 -0.094,-1.011394 -0.008,-1.320353 0.14389,-0.515975 0.5662,-0.909374 1.19268,-1.111036 0.29801,-0.09592 0.57321,-0.129122 1.2507,-0.150871 l 0.86863,-0.02788 -10e-4,-0.491465 c -0.001,-0.565977 -0.10654,-0.864485 -0.38769,-1.101053 -0.48183,-0.405437 -1.47374,-0.264492 -1.93483,0.274929 l -0.21369,0.250001 -0.32716,-0.330605 -0.32715,-0.330604 0.15767,-0.207689 c 0.54836,-0.722294 1.51388,-1.067868 2.53705,-0.908047 0.79012,0.123421 1.3623,0.515217 1.59231,1.090336 0.11995,0.299924 0.1272,0.41106 0.14607,2.23796 l 0.0199,1.922364 h 0.28075 0.28075 v 0.476217 0.476217 l -0.29903,0.03592 c -1.08197,0.129959 -1.52066,-0.06862 -1.52281,-0.689318 -7e-4,-0.200742 -0.0196,-0.242075 -0.11059,-0.242075 -0.0772,0 -0.15075,0.08958 -0.24783,0.301633 -0.20824,0.454852 -0.45742,0.707517 -0.7973,0.808451 -0.34544,0.102585 -0.76808,0.105044 -1.1337,0.0066 z m 1.50187,-1.025802 c 0.17032,-0.07533 0.39138,-0.230007 0.49123,-0.343735 0.18074,-0.205841 0.18156,-0.209638 0.18156,-0.837809 v -0.63103 l -0.78319,0.02373 c -0.66787,0.02023 -0.81865,0.04223 -1.02408,0.14942 -0.31104,0.162286 -0.41413,0.367717 -0.41413,0.825234 0,0.72298 0.20619,0.950568 0.86154,0.950938 0.27506,1.53e-4 0.46135,-0.03692 0.68707,-0.136745 z"
     id="path2574" />
  <path
     style="fill:#ffffff;fill-opacity:1;stroke:#4d4d4d;stroke-width:0.0569589;stroke-opacity:0.752941"
     d="m 296.95539,27.425725 v -3.075782 h 0.56959 0.56959 v 0.602815 c 0,0.67512 0.0603,0.746403 0.22356,0.264198 0.12238,-0.361508 0.23198,-0.489276 0.60234,-0.702208 0.22267,-0.12802 0.35624,-0.163853 0.61231,-0.16427 l 0.32751,-5.35e-4 v 0.587677 0.587677 l -0.59637,0.06185 c -0.65549,0.06798 -0.95308,0.181278 -1.1372,0.432942 -0.11319,0.154723 -0.1182,0.241541 -0.13379,2.321077 l -0.0162,2.160342 h -0.51067 -0.51067 z"
     id="path2576" />
  <path
     style="fill:#ffffff;fill-opacity:1;stroke:#4d4d4d;stroke-width:0.0569589;stroke-opacity:0.752941"
     d="m 303.60446,30.727814 c -0.51906,-0.130725 -0.86569,-0.412486 -1.06671,-0.867094 -0.19097,-0.431869 -0.28518,-0.361305 -0.28518,0.213596 v 0.48415 h -0.56959 -0.56959 v -4.414317 -4.414317 h 0.56959 0.56959 v 1.851165 c 0,1.999184 0.0198,2.115448 0.27167,1.596978 0.32656,-0.672154 0.855,-0.975208 1.61359,-0.925376 0.90992,0.05977 1.56054,0.612256 1.84874,1.569885 0.13193,0.438353 0.21398,1.365106 0.17597,1.987397 -0.0673,1.101778 -0.3098,1.90215 -0.71675,2.36564 -0.38656,0.44027 -1.25357,0.700321 -1.84133,0.552293 z m 0.55644,-1.219505 c 0.2148,-0.08975 0.4255,-0.33258 0.60512,-0.697401 0.125,-0.253903 0.13654,-0.354464 0.1538,-1.34116 0.023,-1.316238 -0.0301,-1.560651 -0.4171,-1.917337 -0.32899,-0.30325 -0.47689,-0.358005 -0.97978,-0.36274 -0.72215,-0.0068 -1.16638,0.330372 -1.24298,0.943414 -0.0204,0.163054 -0.0285,0.885851 -0.018,1.606216 0.0182,1.253071 0.0249,1.319874 0.15307,1.54359 0.12779,0.222962 0.15162,0.236601 0.51263,0.293281 0.43603,0.06846 0.97838,0.03861 1.23321,-0.06786 z"
     id="path2578" />
  <path
     style="fill:#ffffff;fill-opacity:1;stroke:#4d4d4d;stroke-width:0.0569589;stroke-opacity:0.752941"
     d="m 309.05916,30.564617 c -0.48528,-0.120958 -0.70948,-0.23433 -0.95316,-0.481998 -0.80429,-0.817442 -1.09409,-2.54005 -0.69133,-4.109346 0.19715,-0.768166 0.70139,-1.414759 1.26888,-1.627082 1.06721,-0.399295 2.13869,-0.213558 2.9014,0.502946 0.47653,0.447668 0.6994,1.088432 0.78226,2.249074 l 0.0396,0.55535 h -1.92368 -1.92369 l 0.0276,0.527181 c 0.0392,0.7492 0.19541,0.995761 0.82416,1.300776 0.21404,0.10383 0.36298,0.131856 0.67633,0.127263 0.63106,-0.0093 1.1206,-0.26787 1.35063,-0.713531 l 0.0794,-0.153804 0.33021,0.333699 0.33022,0.333699 -0.18235,0.25392 c -0.3029,0.421777 -0.79673,0.712635 -1.52709,0.89943 -0.52133,0.133334 -0.8817,0.133954 -1.4094,0.0024 z m 1.83944,-4.206872 c -0.0376,-0.629921 -0.27811,-1.050623 -0.68973,-1.206583 -0.2248,-0.08517 -0.86135,-0.07571 -1.08034,0.01605 -0.26111,0.109419 -0.52568,0.347151 -0.62691,0.563319 -0.0478,0.102178 -0.10519,0.384423 -0.12742,0.62721 l -0.0404,0.441432 h 1.29559 1.29558 z"
     id="path2580" />
  <path
     style="fill:#ffffff;fill-opacity:1;stroke:#4d4d4d;stroke-width:0.0569589;stroke-opacity:0.752941"
     d="m 314.70516,30.582569 c -0.73561,-0.234918 -1.19519,-0.773465 -1.44586,-1.694298 -0.14176,-0.520731 -0.13806,-2.233727 0.006,-2.85804 0.20883,-0.903892 0.60586,-1.473462 1.22326,-1.754865 0.38666,-0.176232 1.19242,-0.173298 1.53208,0.0056 0.37295,0.196417 0.61668,0.440602 0.75068,0.75209 0.0675,0.156865 0.14761,0.285209 0.17806,0.285209 0.0347,0 0.0554,-0.690315 0.0554,-1.851165 v -1.851166 h 0.56959 0.56959 v 4.442797 4.442797 h -0.56959 -0.56959 v -0.512631 c 0,-0.542277 -0.0579,-0.641963 -0.19033,-0.327514 -0.12532,0.297636 -0.48419,0.68687 -0.76973,0.834867 -0.33783,0.175099 -0.94022,0.21392 -1.33971,0.08634 z m 1.7725,-1.11414 c 0.13293,-0.06373 0.29953,-0.19698 0.37024,-0.296105 0.12476,-0.174918 0.12908,-0.226374 0.14644,-1.746599 0.0115,-1.00463 -0.004,-1.641077 -0.0434,-1.774684 -0.0774,-0.263046 -0.38526,-0.536395 -0.69995,-0.621536 -0.31014,-0.08391 -0.93075,-0.04087 -1.16617,0.08087 -0.20969,0.108435 -0.49622,0.499065 -0.61685,0.840958 -0.11203,0.317543 -0.11403,2.31367 -0.003,2.625734 0.0766,0.214572 0.27372,0.489903 0.56337,0.786886 0.28798,0.295283 0.95126,0.34311 1.44896,0.10448 z"
     id="path2582" />
  <path
     style="fill:#ffffff;fill-opacity:1;stroke:#4d4d4d;stroke-width:0.0569589;stroke-opacity:0.752941"
     d="m 273.14655,41.779376 v -3.075782 h 0.56959 0.56959 v 0.51263 c 0,0.417699 0.0158,0.51263 0.0854,0.51263 0.047,0 0.0854,-0.03947 0.0854,-0.08771 0,-0.26819 0.4094,-0.767938 0.79742,-0.973404 0.29875,-0.15819 1.08724,-0.148413 1.3955,0.0173 0.43751,0.235202 0.8027,0.754793 0.93548,1.331011 0.0347,0.150714 0.0591,1.185666 0.0599,2.546504 l 10e-4,2.292597 h -0.56664 -0.56664 l -0.0172,-2.321076 c -0.0162,-2.187999 -0.0237,-2.33414 -0.13111,-2.548912 -0.13314,-0.266295 -0.3193,-0.369474 -0.7289,-0.403994 -0.41501,-0.03497 -0.80783,0.115345 -1.03216,0.394977 l -0.17554,0.218819 -0.0161,2.330093 -0.0161,2.330093 h -0.62471 -0.62472 z"
     id="path2584" />
  <path
     style="fill:#ffffff;fill-opacity:1;stroke:#4d4d4d;stroke-width:0.0569589;stroke-opacity:0.752941"
     d="m 281.06719,44.994383 c -0.77823,-0.16875 -1.12933,-0.439708 -1.50626,-1.162435 -0.29071,-0.557401 -0.4039,-1.138218 -0.4,-2.052572 0.005,-1.264184 0.24917,-2.036531 0.83087,-2.632353 0.2599,-0.266197 0.37597,-0.338814 0.70579,-0.441538 1.09432,-0.340836 2.09287,-0.136155 2.82773,0.579621 0.48074,0.468255 0.72823,1.2402 0.72823,2.271445 v 0.50762 h -1.87965 -1.87964 v 0.447171 c 0,0.245945 0.0291,0.534299 0.0646,0.640788 0.15706,0.470753 0.76886,0.848644 1.37393,0.848644 0.58602,0 0.89796,-0.122341 1.22538,-0.480591 l 0.28178,-0.308316 0.29289,0.296567 c 0.16108,0.163111 0.29288,0.325027 0.29288,0.359813 0,0.03479 -0.11744,0.19387 -0.26098,0.353519 -0.30277,0.336758 -0.76649,0.580347 -1.42581,0.748972 -0.50677,0.12961 -0.76122,0.134341 -1.27173,0.02365 z m 1.74732,-4.201186 c -0.0703,-0.930101 -0.41737,-1.292178 -1.23847,-1.292178 -0.84501,0 -1.30844,0.488897 -1.3093,1.381254 l -3.2e-4,0.327514 h 1.2898 1.28979 z"
     id="path2586" />
  <path
     style="fill:#ffffff;fill-opacity:1;stroke:#4d4d4d;stroke-width:0.0569589;stroke-opacity:0.752941"
     d="m 286.63497,45.003378 c -0.38344,-0.103234 -0.64674,-0.300889 -0.89858,-0.674565 -0.37391,-0.554788 -0.40063,-0.781593 -0.40063,-3.400825 v -2.281353 h 0.56714 0.56714 l 0.0167,2.265783 0.0167,2.265784 0.14575,0.283128 c 0.19886,0.386332 0.47034,0.53757 0.96495,0.53757 0.47512,0 0.76799,-0.155025 0.96814,-0.512478 l 0.14256,-0.254593 0.0178,-2.264118 0.0178,-2.264117 h 0.56605 0.56604 v 3.075782 3.075782 h -0.56959 -0.56959 v -0.484151 c 0,-0.580274 -0.0974,-0.647711 -0.28966,-0.200663 -0.16237,0.377444 -0.53093,0.710408 -0.91141,0.823399 -0.35424,0.105199 -0.55449,0.107302 -0.91726,0.0096 z"
     id="path2588" />
  <path
     style="fill:#ffffff;fill-opacity:1;stroke:#4d4d4d;stroke-width:0.0569589;stroke-opacity:0.752941"
     d="m 292.62768,44.79159 c -0.20144,-0.08037 -0.33718,-0.216301 -0.47689,-0.477542 -0.1174,-0.219541 -0.12253,-0.308188 -0.14097,-2.434994 l -0.0191,-2.207159 h -0.42255 -0.42255 v -0.48415 -0.484151 h 0.38988 c 0.56039,0 0.57842,-0.02899 0.57842,-0.930068 v -0.721741 h 0.54111 0.54111 v 0.825904 0.825905 h 0.59807 0.59806 v 0.484151 0.48415 h -0.59806 -0.59807 v 2.13596 2.13596 h 0.54111 0.54111 v 0.455672 0.455671 l -0.75471,-0.0036 c -0.41509,-0.002 -0.81826,-0.02897 -0.89593,-0.05996 z"
     id="path2590" />
  <path
     style="fill:#ffffff;fill-opacity:1;stroke:#4d4d4d;stroke-width:0.0569589;stroke-opacity:0.752941"
     d="m 295.64533,41.779376 v -3.075782 h 0.56959 0.56959 v 0.598068 c 0,0.46843 0.0169,0.598069 0.078,0.598069 0.0442,0 0.10998,-0.1141 0.15165,-0.26295 0.0405,-0.144622 0.13688,-0.338119 0.21418,-0.429992 0.19344,-0.229894 0.62566,-0.437055 1.00484,-0.481621 l 0.31702,-0.03726 v 0.625861 0.625862 l -0.50146,0.03559 c -0.49612,0.03522 -0.91837,0.144851 -1.08326,0.281261 -0.0468,0.03874 -0.13178,0.172962 -0.18879,0.298272 -0.094,0.206533 -0.10375,0.418227 -0.10489,2.264117 l -0.001,2.036282 h -0.51263 -0.51263 z"
     id="path2592" />
  <path
     style="fill:#ffffff;fill-opacity:1;stroke:#4d4d4d;stroke-width:0.0569589;stroke-opacity:0.752941"
     d="m 301.26121,44.96415 c -0.52876,-0.129882 -0.7492,-0.254526 -1.04554,-0.591179 -1.19489,-1.357475 -0.97477,-4.692591 0.36142,-5.475822 1.00859,-0.591206 2.65626,-0.407754 3.24334,0.361114 0.51187,0.670376 0.72537,1.411475 0.7263,2.521113 10e-4,1.197174 -0.28346,2.123718 -0.81705,2.661322 -0.29814,0.300374 -0.58633,0.439343 -1.1472,0.553184 -0.55391,0.11243 -0.76154,0.107757 -1.32127,-0.02973 z m 1.36208,-1.069603 c 0.29699,-0.134918 0.57622,-0.457288 0.65747,-0.759048 0.0881,-0.327197 0.0453,-2.686196 -0.053,-2.922494 -0.10099,-0.242725 -0.33996,-0.481307 -0.60496,-0.604 -0.27592,-0.127749 -0.96852,-0.145196 -1.24069,-0.03126 -0.22512,0.09425 -0.59198,0.491082 -0.65175,0.705018 -0.0243,0.08694 -0.0442,0.734782 -0.0442,1.439649 0,1.347094 0.0294,1.549792 0.2693,1.854743 0.30278,0.384917 1.16003,0.548056 1.66779,0.317387 z"
     id="path2594" />
  <path
     style="fill:#ffffff;fill-opacity:1;stroke:#4d4d4d;stroke-width:0.0569589;stroke-opacity:0.752941"
     d="m 305.9549,41.779376 v -3.075782 h 0.56959 0.56959 v 0.51263 c 0,0.281947 0.0238,0.51263 0.0528,0.51263 0.029,0 0.11446,-0.134721 0.18984,-0.299381 0.1596,-0.348594 0.40102,-0.608033 0.70743,-0.760204 0.32255,-0.160191 1.10143,-0.150324 1.41913,0.01798 0.27362,0.144946 0.54269,0.435743 0.71494,0.772636 0.25968,0.507918 0.27506,0.681036 0.27578,3.102678 l 6.7e-4,2.292597 h -0.56661 -0.56661 l -0.0188,-2.292597 c -0.021,-2.562738 -0.0332,-2.651986 -0.39001,-2.860604 -0.24895,-0.145553 -0.90796,-0.153767 -1.17098,-0.0146 -0.26897,0.142319 -0.45951,0.404076 -0.52858,0.726141 -0.0383,0.178663 -0.062,1.083094 -0.062,2.365459 v 2.076197 h -0.59807 -0.59807 z"
     id="path2596" />
  <path
     style="fill:#ffffff;fill-opacity:1;stroke:#4d4d4d;stroke-width:0.161104;stroke-opacity:0.752941"
     d="m 230.08818,50.183849 -0.44156,-0.78551 1.0106,-0.555242 c 0.75129,-0.412772 9.12707,-4.797236 12.57719,-6.583769 0.26351,-0.136449 0.20831,-0.300785 -0.61922,-1.843556 -0.49969,-0.931565 -0.87524,-1.727035 -0.83456,-1.767712 0.0851,-0.08508 9.3305,0.396262 9.42492,0.490685 0.0662,0.06622 -4.53924,7.441113 -4.85973,7.782064 -0.14682,0.156193 -0.38032,-0.164752 -1.05487,-1.449938 -0.47648,-0.907793 -0.88476,-1.674404 -0.90731,-1.70358 -0.0352,-0.04559 -7.16262,3.649182 -12.23769,6.3439 l -1.61622,0.858168 z"
     id="path2598" />
  <path
     style="fill:#ffffff;fill-opacity:1;stroke:#4d4d4d;stroke-width:0.161104;stroke-opacity:0.752941"
     d="m 242.30069,96.792293 c -2.39239,-0.397652 -4.37576,-0.748394 -4.40748,-0.779424 -0.0317,-0.03103 0.45763,-0.681681 1.08745,-1.445889 0.62982,-0.764208 1.14513,-1.447373 1.14513,-1.518144 0,-0.07077 -2.30178,-1.998315 -5.11506,-4.283429 -2.81328,-2.285115 -5.20419,-4.235318 -5.31313,-4.333785 -0.15331,-0.13857 -0.0623,-0.333733 0.40276,-0.863544 l 0.60083,-0.684513 4.75258,3.884038 c 2.61391,2.136221 5.02036,4.097525 5.34766,4.358455 l 0.5951,0.474416 1.17705,-1.447259 c 0.64738,-0.795993 1.21449,-1.451333 1.26025,-1.45631 0.0457,-0.005 0.62185,1.386514 1.28021,3.092205 0.65836,1.70569 1.43161,3.699354 1.71834,4.430365 0.51414,1.31081 0.51648,1.32888 0.16972,1.312466 -0.19338,-0.0092 -2.30901,-0.341995 -4.70141,-0.739648 z"
     id="path2600" />
  <path
     style="fill:#ffffff;fill-opacity:1;stroke:#4d4d4d;stroke-width:0.161104;stroke-opacity:0.752941"
     d="m 275.70704,121.57433 -4.45313,-0.74619 1.27186,-1.52421 c 0.99777,-1.19574 1.22834,-1.56423 1.06994,-1.70997 -0.11105,-0.10216 -2.54008,-2.08628 -5.39784,-4.40913 l -5.19594,-4.22338 0.57565,-0.7025 0.57565,-0.7025 4.37863,3.56766 c 2.40825,1.96222 4.79925,3.91527 5.31334,4.34012 0.51409,0.42484 0.99346,0.77244 1.06526,0.77244 0.0718,0 0.62988,-0.6023 1.24019,-1.33846 0.61031,-0.73614 1.17055,-1.37049 1.24498,-1.40966 0.0744,-0.0392 0.48418,0.87126 0.91057,2.02315 0.42638,1.1519 1.17336,3.16368 1.65995,4.47064 0.83719,2.24864 0.86616,2.37527 0.53937,2.35723 -0.18994,-0.0105 -2.34925,-0.35484 -4.79848,-0.76524 z"
     id="path2602" />
  <path
     style="fill:#ffffff;fill-opacity:1;stroke:#4d4d4d;stroke-width:0.113918;stroke-opacity:0.752941"
     d="m 94.601879,87.172578 -2.342221,-4.126457 1.896389,-0.03109 1.896389,-0.03109 0.07549,-6.747024 c 0.04152,-3.710863 0.07554,-8.502782 0.0756,-10.64871 l 1.05e-4,-3.901687 h 0.97348 0.973479 l -0.06345,8.914073 c -0.0349,4.90274 -0.09056,9.695834 -0.123691,10.65132 l -0.06025,1.737247 h 1.941199 c 1.067662,0 1.941202,0.03408 1.941202,0.07573 0,0.113838 -4.718673,8.234988 -4.784553,8.234533 -0.03133,-2.27e-4 -1.110958,-1.857299 -2.39918,-4.126851 z"
     id="path2604" />
  <path
     style="fill:#ffffff;fill-opacity:1;stroke:#4d4d4d;stroke-width:0.113918;stroke-opacity:0.752941"
     d="m 57.129808,128.10064 v -1.93661 h -8.259045 -8.259045 v -0.9683 -0.9683 h 8.259045 8.259045 v -1.93661 c 0,-1.06513 0.02573,-1.9366 0.05718,-1.9366 0.04421,0 8.352136,4.74826 8.453291,4.83134 0.03175,0.0261 -8.372571,4.85168 -8.449747,4.85168 -0.0334,0 -0.06072,-0.87147 -0.06072,-1.9366 z"
     id="path2606" />
  <path
     style="fill:#ffffff;fill-opacity:1;stroke:#4d4d4d;stroke-width:0.322208;stroke-opacity:0.752941"
     d="m 119.39152,112.19121 c -0.21364,-0.34209 -0.26779,-0.73344 -0.12032,-0.86967 0.14746,-0.13623 3.28005,-1.80053 6.96133,-3.69844 l 6.69322,-3.45074 -0.92556,-1.70886 -0.92556,-1.70886 4.54301,0.17179 c 2.49865,0.0945 4.59595,0.21749 4.66066,0.27335 0.1583,0.13664 -4.57527,7.53315 -4.82546,7.54009 -0.10828,0.003 -0.54302,-0.64702 -0.96607,-1.44448 -0.42305,-0.79747 -0.88943,-1.44994 -1.03638,-1.44994 -0.14696,0 -3.28293,1.56774 -6.96882,3.48387 -6.34087,3.29633 -6.72253,3.45038 -7.09005,2.86189 z"
     id="path2608" />
  <path
     style="fill:#ffffff;fill-opacity:1;stroke:#4d4d4d;stroke-width:0.322208;stroke-opacity:0.752941"
     d="m 159.34543,90.40446 c -0.40261,-0.752271 -0.37744,-0.768632 7.2363,-4.703296 3.01265,-1.556892 5.65417,-2.967535 5.87005,-3.134763 0.29935,-0.23189 0.1979,-0.68808 -0.42747,-1.922191 l -0.81997,-1.618141 4.35637,0.127303 c 2.39601,0.07002 4.44252,0.213441 4.5478,0.318722 0.23388,0.233886 -4.31895,7.363062 -4.7022,7.363062 -0.15013,0 -0.58372,-0.616224 -0.96353,-1.369386 -0.37982,-0.753162 -0.7354,-1.419951 -0.79019,-1.481753 -0.0548,-0.0618 -3.15639,1.496881 -6.89244,3.46374 -3.73606,1.966859 -6.85817,3.576108 -6.93803,3.576108 -0.0799,0 -0.29437,-0.278732 -0.47669,-0.619405 z"
     id="path2610" />
  <path
     style="fill:#ffffff;fill-opacity:1;stroke:#4d4d4d;stroke-width:0.322208;stroke-opacity:0.752941"
     d="m 131.46102,156.02514 c -2.12658,-0.35998 -3.92324,-0.70197 -3.99258,-0.75997 -0.0693,-0.058 0.4022,-0.75016 1.04786,-1.5381 l 1.17393,-1.43262 -1.69227,-1.41415 c -0.93076,-0.77777 -3.28721,-2.69813 -5.23657,-4.26746 -1.94936,-1.56933 -3.65646,-2.94878 -3.79356,-3.06544 -0.1371,-0.11667 0.0239,-0.45934 0.35778,-0.7615 0.58134,-0.52611 0.83545,-0.36462 6.00118,3.81377 l 5.39414,4.36313 1.16943,-1.44209 c 0.76571,-0.94424 1.24487,-1.30717 1.38794,-1.05127 0.12017,0.21495 0.79982,1.91326 1.51032,3.77402 0.7105,1.86075 1.39166,3.63692 1.51369,3.94705 0.27283,0.69335 0.22116,0.69159 -4.84129,-0.16537 z"
     id="path2612" />
  <path
     style="fill:#ffffff;fill-opacity:1;stroke:#4d4d4d;stroke-width:0.0569589;stroke-opacity:0.752941"
     d="m 16.318734,144.30545 v -3.07578 h 0.569589 0.569589 v 3.07578 3.07578 h -0.569589 -0.569589 z"
     id="path2614" />
  <path
     style="fill:#ffffff;fill-opacity:1;stroke:#4d4d4d;stroke-width:0.0569589;stroke-opacity:0.752941"
     d="m 19.223639,144.30595 v -3.07628 h 0.56959 0.569589 v 0.51263 c 0,0.39082 0.01816,0.51263 0.07642,0.51263 0.04203,0 0.106409,-0.10008 0.143059,-0.22241 0.09045,-0.30191 0.520101,-0.76723 0.819579,-0.88763 0.29273,-0.11769 0.790092,-0.13099 1.148268,-0.0307 0.563075,0.15765 1.041995,0.81187 1.169459,1.59752 0.03424,0.21102 0.06007,1.29007 0.06032,2.51932 l 4.31e-4,2.1502 h -0.56959 -0.569589 l -0.0012,-2.09324 c -0.0015,-2.70953 -0.05071,-2.96821 -0.611407,-3.21623 -0.498863,-0.22067 -1.116939,-0.0433 -1.392337,0.39964 -0.130266,0.2095 -0.131126,0.22404 -0.147684,2.49952 l -0.01665,2.2888 -0.29662,0.0299 c -0.16314,0.0164 -0.444,0.044 -0.624133,0.0613 l -0.327514,0.0314 z"
     id="path2616" />
  <path
     style="fill:#ffffff;fill-opacity:1;stroke:#4d4d4d;stroke-width:0.0569589;stroke-opacity:0.752941"
     d="m 25.546081,144.30545 v -3.07578 h 0.569589 0.569589 v 3.07578 3.07578 H 26.11567 25.546081 Z"
     id="path2618" />
  <path
     style="fill:#ffffff;fill-opacity:1;stroke:#4d4d4d;stroke-width:0.0569589;stroke-opacity:0.752941"
     d="m 30.045836,147.38344 c -0.611785,-0.0538 -0.813659,-0.13669 -1.004946,-0.41262 l -0.162712,-0.23471 -0.01611,-2.26907 -0.01611,-2.26907 H 28.39216 27.938362 v -0.48415 -0.48415 h 0.263946 c 0.145171,0 0.363039,-0.0297 0.484151,-0.066 l 0.220204,-0.066 v -0.73145 -0.73145 h 0.54111 0.54111 v 0.85438 0.85439 h 0.598069 0.598069 v 0.45567 0.45567 h -0.598069 -0.598069 v 2.13596 2.13596 h 0.54111 0.54111 v 0.45567 0.45567 l -0.299035,-0.009 c -0.164468,-0.005 -0.49127,-0.0255 -0.726226,-0.0462 z"
     id="path2620" />
  <path
     style="fill:#ffffff;fill-opacity:1;stroke:#4d4d4d;stroke-width:0.0569589;stroke-opacity:0.752941"
     d="m 32.438111,144.30545 v -3.07578 h 0.56959 0.569589 v 3.07578 3.07578 h -0.569589 -0.56959 z"
     id="path2622" />
  <path
     style="fill:#ffffff;fill-opacity:1;stroke:#4d4d4d;stroke-width:0.0569589;stroke-opacity:0.752941"
     d="m 36.218174,147.49008 c -0.793706,-0.23003 -1.231705,-1.09522 -1.050636,-2.07533 0.183528,-0.99341 0.925346,-1.43194 2.525035,-1.49266 l 0.840144,-0.0319 -3.19e-4,-0.40468 c -5.64e-4,-0.71648 -0.178536,-1.1051 -0.592116,-1.29293 -0.304161,-0.13813 -0.673566,-0.13602 -1.134933,0.006 -0.297688,0.0919 -0.41689,0.16561 -0.594468,0.36735 l -0.222116,0.25234 -0.323518,-0.32693 -0.323517,-0.32693 0.130928,-0.17747 c 0.225075,-0.30507 0.704121,-0.69857 0.960601,-0.78906 0.658452,-0.23232 1.580234,-0.20091 2.139413,0.0729 0.377241,0.18472 0.719112,0.54686 0.91921,0.9737 l 0.151534,0.32325 0.01768,1.92237 0.01768,1.92236 h 0.30983 0.30983 v 0.49015 0.49015 l -0.669268,-0.0237 c -0.982755,-0.0348 -1.210377,-0.18421 -1.210377,-0.79419 0,-0.15699 -0.02428,-0.21934 -0.08544,-0.21934 -0.04699,0 -0.08544,0.0395 -0.08544,0.0877 0,0.27984 -0.438147,0.85218 -0.766589,1.00137 -0.251441,0.11421 -0.939784,0.13875 -1.263159,0.045 z m 1.42112,-0.97051 c 0.162445,-0.0667 0.404288,-0.23177 0.537429,-0.36692 l 0.242076,-0.24572 v -0.63865 -0.63864 l -0.774812,0.035 c -1.206699,0.0545 -1.446586,0.22213 -1.446586,1.01061 0,0.71923 0.209594,0.95013 0.872304,0.961 0.158884,0.003 0.39847,-0.0465 0.569589,-0.1167 z"
     id="path2624" />
  <path
     style="fill:#ffffff;fill-opacity:1;stroke:#4d4d4d;stroke-width:0.0569589;stroke-opacity:0.752941"
     d="m 42.045007,147.31157 c -0.277052,-0.0734 -0.5839,-0.37767 -0.661052,-0.65549 -0.03886,-0.13993 -0.05973,-1.58798 -0.05993,-4.15907 l -3.18e-4,-3.94441 h 0.56959 0.569589 v 3.93017 3.93016 h 0.341754 0.341753 v 0.48415 0.48415 l -0.441431,-0.006 c -0.242788,-0.003 -0.539766,-0.0319 -0.659952,-0.0638 z"
     id="path2626" />
  <path
     style="fill:#ffffff;fill-opacity:1;stroke:#4d4d4d;stroke-width:0.0569589;stroke-opacity:0.752941"
     d="m 10.850676,158.70271 v -3.06243 h 0.56959 0.569589 v 0.48415 c 0,0.367 0.01849,0.48415 0.07642,0.48415 0.04203,0 0.105568,-0.0973 0.14119,-0.21617 0.08977,-0.29964 0.414685,-0.66003 0.736602,-0.81705 0.212637,-0.10371 0.361664,-0.1311 0.697595,-0.12822 0.743229,0.006 1.234259,0.37153 1.550115,1.15275 0.127509,0.31537 0.130512,0.37181 0.146718,2.75696 l 0.01654,2.43499 H 14.78609 14.217145 l -0.01719,-2.32107 c -0.0166,-2.24118 -0.02144,-2.33027 -0.140549,-2.58803 -0.277397,-0.60028 -1.212063,-0.69208 -1.687575,-0.16575 -0.301451,0.33367 -0.325025,0.5429 -0.325025,2.88474 v 2.0762 l -0.128158,0.005 c -0.07049,0.002 -0.339617,0.0221 -0.598068,0.0436 l -0.469912,0.0391 z"
     id="path2628" />
  <path
     style="fill:#ffffff;fill-opacity:1;stroke:#4d4d4d;stroke-width:0.0569589;stroke-opacity:0.752941"
     d="m 18.605637,161.84679 c -0.661381,-0.17323 -0.944039,-0.39706 -1.310692,-1.0379 -0.30951,-0.54097 -0.42184,-1.08593 -0.425513,-2.06435 -0.0037,-0.9766 0.08809,-1.49685 0.363671,-2.06197 0.238914,-0.48993 0.751576,-0.95012 1.218248,-1.09356 0.780136,-0.23979 1.468991,-0.20139 2.099832,0.11706 0.95581,0.48249 1.398788,1.36447 1.404498,2.7964 l 0.002,0.49839 h -2.001463 -2.001463 l 0.02852,0.50026 c 0.01692,0.2968 0.06599,0.57271 0.12063,0.67838 0.228189,0.44127 0.924223,0.79228 1.461497,0.73702 0.628032,-0.0646 1.046057,-0.30725 1.299654,-0.75444 0.05588,-0.0985 0.08728,-0.0816 0.377429,0.20384 0.174064,0.17124 0.316479,0.32775 0.316479,0.34781 0,0.12281 -0.449073,0.58595 -0.795721,0.82064 -0.651365,0.441 -1.305234,0.53568 -2.157597,0.31242 z m 1.912235,-4.12694 c -0.06562,-0.86765 -0.409353,-1.28515 -1.093978,-1.32874 -0.486983,-0.031 -0.785003,0.0652 -1.078964,0.34831 -0.285088,0.27457 -0.373599,0.52326 -0.37407,1.05106 l -3.17e-4,0.35599 h 1.289797 1.289797 z"
     id="path2630" />
  <path
     style="fill:#ffffff;fill-opacity:1;stroke:#4d4d4d;stroke-width:0.0569589;stroke-opacity:0.752941"
     d="m 24.234281,161.87815 c -0.517693,-0.16544 -0.924465,-0.66877 -1.107081,-1.36987 -0.07137,-0.27399 -0.08731,-0.74918 -0.08731,-2.60161 v -2.26639 h 0.569589 0.569589 v 2.1541 c 0,2.41955 0.02156,2.59125 0.368979,2.93867 0.465535,0.46554 1.401102,0.34287 1.723293,-0.22596 0.125747,-0.222 0.127264,-0.25144 0.12819,-2.48878 l 9.37e-4,-2.26411 h 0.598068 0.598069 v 3.0473 3.0473 H 27.03862 26.480638 l 0.02388,-0.54599 c 0.02372,-0.54232 0.023,-0.54586 -0.106496,-0.52687 -0.08731,0.0128 -0.150771,0.079 -0.192124,0.20048 -0.114483,0.33625 -0.404435,0.67798 -0.695318,0.81949 -0.339642,0.16523 -0.902999,0.20153 -1.276299,0.0822 z"
     id="path2632" />
  <path
     style="fill:#ffffff;fill-opacity:1;stroke:#4d4d4d;stroke-width:0.0569589;stroke-opacity:0.752941"
     d="m 31.026484,161.78425 c -0.64559,-0.0676 -0.82159,-0.15158 -1.017932,-0.48562 l -0.162072,-0.27573 -0.01672,-2.23564 -0.01672,-2.23564 h -0.453192 -0.453192 v -0.45567 -0.45567 h 0.276296 c 0.296687,0 0.637377,-0.0939 0.705374,-0.19445 0.02302,-0.034 0.04224,-0.36304 0.04272,-0.73113 l 8.72e-4,-0.66927 h 0.512631 0.51263 v 0.85438 0.85439 h 0.598069 0.598069 v 0.45567 0.45567 h -0.598069 -0.598069 v 2.13596 2.13596 h 0.51263 0.512631 v 0.45567 0.45567 l -0.242076,-0.008 c -0.133141,-0.004 -0.454387,-0.0298 -0.71388,-0.057 z"
     id="path2634" />
  <path
     style="fill:#ffffff;fill-opacity:1;stroke:#4d4d4d;stroke-width:0.0569589;stroke-opacity:0.752941"
     d="m 33.406413,158.71606 v -3.07578 h 0.569589 0.56959 v 0.60224 c 0,0.51763 0.01259,0.59966 0.08961,0.58383 0.05025,-0.0103 0.134262,-0.15062 0.191266,-0.3194 0.05591,-0.16555 0.16091,-0.36407 0.233333,-0.44116 0.222536,-0.23688 0.668675,-0.42551 1.006386,-0.42551 h 0.30209 v 0.61879 0.61878 l -0.53348,0.0279 c -0.619328,0.0324 -0.931083,0.15423 -1.06137,0.41481 -0.07044,0.14088 -0.08839,0.54827 -0.102241,2.32107 l -0.0168,2.1502 h -0.623985 -0.623985 z"
     id="path2636" />
  <path
     style="fill:#ffffff;fill-opacity:1;stroke:#4d4d4d;stroke-width:0.0569589;stroke-opacity:0.752941"
     d="m 38.967103,161.87226 c -0.709978,-0.17184 -1.102625,-0.50667 -1.458468,-1.24373 -0.240938,-0.49906 -0.358758,-1.13649 -0.358758,-1.94095 0,-1.2475 0.309122,-2.17784 0.886067,-2.66673 0.396207,-0.33574 0.559652,-0.41218 1.127269,-0.52719 0.527875,-0.10696 0.968184,-0.0717 1.590902,0.12738 0.408222,0.13052 0.87164,0.58664 1.119074,1.10146 0.481787,1.00242 0.511357,2.64522 0.06904,3.83558 -0.141518,0.38085 -0.564345,0.87904 -0.92591,1.09093 -0.497636,0.29163 -1.37275,0.38697 -2.049214,0.22325 z m 1.474194,-1.13141 c 0.540811,-0.31694 0.617301,-0.59734 0.586366,-2.14954 -0.01873,-0.94005 -0.0417,-1.19937 -0.12254,-1.38388 -0.219607,-0.50122 -0.578238,-0.70958 -1.224619,-0.71152 -0.494545,-0.001 -0.719386,0.0884 -1.000987,0.40009 -0.298803,0.33074 -0.331239,0.53823 -0.306371,1.95986 0.02373,1.35654 0.05558,1.51955 0.349947,1.79095 0.346205,0.3192 1.249622,0.36864 1.718204,0.094 z"
     id="path2638" />
  <path
     style="fill:#ffffff;fill-opacity:1;stroke:#4d4d4d;stroke-width:0.0569589;stroke-opacity:0.752941"
     d="m 43.602062,158.71248 v -3.0722 h 0.598068 0.598069 v 0.48415 c 0,0.43039 0.01152,0.48415 0.103765,0.48415 0.06913,0 0.145955,-0.0933 0.230169,-0.27969 0.346916,-0.76761 1.246407,-1.10404 2.053661,-0.76812 0.470657,0.19585 0.901215,0.82471 1.030157,1.50462 0.03158,0.16652 0.05674,1.28089 0.05674,2.51283 v 2.21362 h -0.626548 -0.626548 l -6.77e-4,-2.17868 c -8.27e-4,-2.66538 -0.04064,-2.89954 -0.530789,-3.12209 -0.546224,-0.248 -1.194499,-0.0679 -1.462097,0.40631 l -0.142397,0.25231 -0.01723,2.25954 -0.01723,2.25954 -0.438439,0.0345 c -0.241142,0.019 -0.521742,0.0451 -0.623556,0.058 l -0.185116,0.0234 z"
     id="path2640" />
  <path
     style="fill:#ffffff;fill-opacity:1;stroke:#4d4d4d;stroke-width:0.161104;stroke-opacity:0.752941"
     d="m 160.5131,160.78595 c -0.60451,-0.34056 -0.87418,-1.22358 -0.62631,-2.05087 0.15433,-0.51514 0.31896,-0.69448 0.86511,-0.94243 0.38271,-0.17376 1.04038,-0.30776 1.52029,-0.30977 l 0.8458,-0.004 v -0.71583 c 0,-0.55709 -0.0794,-0.77145 -0.35806,-0.96663 -0.50319,-0.35245 -1.29315,-0.31174 -1.8079,0.0932 -0.40126,0.31564 -0.45854,0.32268 -0.69565,0.0856 -0.23711,-0.23711 -0.23278,-0.28669 0.0527,-0.6021 0.72858,-0.80508 1.88877,-1.01646 2.91252,-0.53066 0.86556,0.41073 1.02415,0.8926 1.02415,3.1118 0,1.83385 0.0178,1.94125 0.32221,1.94125 0.2506,0 0.3222,0.10741 0.3222,0.48332 0,0.43191 -0.0525,0.48331 -0.4939,0.48331 -0.66285,0 -1.11714,-0.26436 -1.11714,-0.65009 0,-0.43928 -0.15075,-0.39695 -0.63268,0.17766 -0.50041,0.59664 -1.46063,0.77481 -2.13331,0.39585 z m 2.12958,-0.97474 c 0.43205,-0.22342 0.47531,-0.32054 0.47531,-1.06712 v -0.82134 l -0.87631,0.0727 c -0.48197,0.04 -0.98945,0.16657 -1.12773,0.28134 -0.29861,0.24782 -0.33741,1.30761 -0.0581,1.58692 0.26685,0.26685 1.01732,0.24204 1.58683,-0.0525 z"
     id="path2642" />
  <path
     style="fill:#ffffff;fill-opacity:1;stroke:#4d4d4d;stroke-width:0.113918;stroke-opacity:0.752941"
     d="m 168.17678,160.82597 c -0.16925,-0.10498 -0.39878,-0.35993 -0.51005,-0.56656 -0.26787,-0.4974 -0.37835,-0.47404 -0.37835,0.08 v 0.45567 h -0.56959 -0.56959 v -4.38584 -4.38583 h 0.56684 0.56683 l 0.0312,1.90812 0.0312,1.90813 0.24753,-0.41881 c 0.34555,-0.58467 0.77418,-0.83591 1.40977,-0.82636 0.76408,0.0115 1.27917,0.37116 1.6693,1.16562 0.29318,0.59702 0.31871,0.75431 0.31798,1.95919 -9e-4,1.49164 -0.20421,2.2788 -0.71424,2.76534 -0.581,0.55425 -1.51163,0.7056 -2.0989,0.34135 z m 1.1822,-1.1313 c 0.45771,-0.41422 0.54951,-0.76927 0.54951,-2.12525 0,-1.12038 -0.031,-1.33975 -0.22397,-1.58508 -0.47994,-0.61014 -1.57187,-0.70847 -2.12254,-0.19114 -0.26577,0.24967 -0.2736,0.30698 -0.2736,2.0029 0,1.62881 0.0163,1.76211 0.24234,1.98821 0.20999,0.20998 0.33279,0.23414 0.91976,0.18091 0.42737,-0.0387 0.76272,-0.13862 0.9085,-0.27055 z"
     id="path2644" />
  <path
     style="fill:#ffffff;fill-opacity:1;stroke:#4d4d4d;stroke-width:0.113918;stroke-opacity:0.752941"
     d="m 173.2348,160.76529 c -0.20681,-0.0662 -0.58523,-0.30608 -0.84092,-0.53298 l -0.4649,-0.41256 0.41478,-0.31636 c 0.34401,-0.2624 0.42623,-0.28649 0.48198,-0.1412 0.13247,0.3452 0.78482,0.63545 1.42821,0.63545 0.72187,0 1.07375,-0.20177 1.17776,-0.67534 0.11846,-0.53933 -0.19264,-1.00256 -0.76791,-1.14343 -1.70557,-0.41764 -2.10347,-0.6753 -2.23977,-1.45034 -0.13193,-0.75014 0.0292,-1.29777 0.50222,-1.70664 0.80487,-0.69575 2.1793,-0.73878 3.14681,-0.0985 l 0.46686,0.30895 -0.31737,0.33126 c -0.28136,0.29367 -0.33813,0.31246 -0.50041,0.1656 -0.10068,-0.0911 -0.3817,-0.24866 -0.62449,-0.3501 -0.83217,-0.34771 -1.54379,0.0221 -1.54379,0.8023 0,0.58602 0.25387,0.81755 0.99379,0.90637 1.00182,0.12026 1.82554,0.5352 2.02897,1.02207 0.47256,1.13099 -0.0781,2.25955 -1.30251,2.6695 -0.47047,0.15752 -1.52634,0.15025 -2.03931,-0.014 z"
     id="path2646" />
  <path
     style="fill:#ffffff;fill-opacity:1;stroke:#4d4d4d;stroke-width:0.0569589;stroke-opacity:0.752941"
     d="m 179.45945,160.91098 c -0.53682,-0.10031 -0.98237,-0.32042 -1.22694,-0.60614 -0.522,-0.60984 -0.77418,-1.45117 -0.77498,-2.58556 -0.002,-2.25509 0.91612,-3.36097 2.70357,-3.2579 1.01721,0.0587 1.5439,0.38053 1.97569,1.20738 0.29216,0.55947 0.41773,1.19598 0.41015,2.079 -0.0107,1.24758 -0.30491,2.11879 -0.89878,2.66156 -0.24493,0.22385 -0.38997,0.30401 -0.72571,0.40109 -0.5721,0.16543 -0.96964,0.19276 -1.463,0.10057 z m 1.12681,-1.01302 c 0.18605,-0.0954 0.2947,-0.20824 0.42502,-0.44143 l 0.17508,-0.31328 0.0182,-1.26775 c 0.0217,-1.51732 -0.0252,-1.76875 -0.38836,-2.07958 -0.50576,-0.43291 -1.27175,-0.43744 -1.64728,-0.01 -0.33675,0.38353 -0.36566,0.51472 -0.39054,1.77184 -0.033,1.66601 0.0653,2.00675 0.66681,2.31146 0.39495,0.20009 0.78733,0.20988 1.14111,0.0285 z"
     id="path2648" />
  <path
     style="fill:#ffffff;fill-opacity:1;stroke:#4d4d4d;stroke-width:0.0569589;stroke-opacity:0.752941"
     d="m 183.94887,157.80472 v -3.07578 h 0.56959 0.56959 v 0.59806 c 0,0.46948 0.0168,0.59807 0.0783,0.59807 0.0431,0 0.0946,-0.0815 0.11456,-0.1812 0.10924,-0.54617 0.5986,-0.94241 1.23517,-1.00014 l 0.33768,-0.0306 v 0.63446 0.63446 l -0.41295,6.8e-4 c -0.40699,6.7e-4 -0.87311,0.0924 -1.10778,0.21797 -0.066,0.0353 -0.17374,0.17527 -0.23945,0.311 -0.11456,0.23667 -0.11946,0.33129 -0.11946,2.3078 v 2.06102 h -0.51263 -0.51263 z"
     id="path2650" />
  <path
     style="fill:#ffffff;fill-opacity:1;stroke:#4d4d4d;stroke-width:0.0569589;stroke-opacity:0.752941"
     d="m 190.32827,160.96347 c -0.2917,-0.13021 -0.55719,-0.40852 -0.74838,-0.78455 -0.0929,-0.18272 -0.19917,-0.32117 -0.23692,-0.30867 -0.0445,0.0147 -0.0742,0.19541 -0.0849,0.51646 l -0.0165,0.49379 h -0.56737 -0.56737 v -4.41432 -4.41431 h 0.5688 0.5688 l 0.015,1.83219 c 0.0109,1.32337 0.0333,1.83829 0.0808,1.85412 0.0362,0.012 0.0956,-0.0682 0.13192,-0.17842 0.0922,-0.27925 0.52367,-0.74069 0.83241,-0.89015 0.31001,-0.15007 0.88765,-0.16439 1.26308,-0.0313 1.02681,0.36397 1.49057,1.32257 1.49057,3.08099 0,1.69467 -0.39568,2.71091 -1.21971,3.13259 -0.28277,0.1447 -0.40939,0.1733 -0.8226,0.18581 -0.3467,0.0105 -0.54622,-0.011 -0.68774,-0.0742 z m 0.83304,-1.16562 c 0.27231,-0.11681 0.56422,-0.50033 0.68415,-0.89882 0.0976,-0.32426 0.10665,-2.12486 0.0126,-2.49847 -0.0948,-0.37661 -0.51323,-0.78064 -0.90598,-0.87486 -0.57011,-0.13677 -1.22406,0.0425 -1.49586,0.4101 -0.16467,0.22271 -0.20295,0.56463 -0.20675,1.8469 -0.005,1.54465 0.0763,1.91823 0.45777,2.1145 0.19068,0.0981 1.14597,0.0328 1.4541,-0.0993 z"
     id="path2652" />
  <path
     style="fill:#ffffff;fill-opacity:1;stroke:#4d4d4d;stroke-width:0.0569589;stroke-opacity:0.752941"
     d="m 196.3631,160.93399 c -0.47598,-0.0701 -0.96206,-0.27344 -1.20257,-0.50313 -0.11829,-0.11296 -0.35408,-0.4292 -0.52399,-0.70274 -0.2611,-0.42035 -0.32312,-0.57468 -0.40059,-0.99678 -0.18861,-1.02764 -0.0606,-2.32475 0.3021,-3.06008 0.43163,-0.87517 1.20831,-1.27416 2.35819,-1.21144 0.42849,0.0234 0.56171,0.057 0.91134,0.22977 0.9834,0.48607 1.36026,1.17638 1.44409,2.64522 l 0.0366,0.64079 h -1.9253 -1.9253 l 0.0338,0.47836 c 0.0545,0.77214 0.19728,1.00053 0.80907,1.29414 0.39434,0.18925 0.80339,0.21539 1.25799,0.0804 0.27109,-0.0805 0.56214,-0.32142 0.77366,-0.6404 0.0831,-0.12525 0.0857,-0.12394 0.41536,0.20923 l 0.33177,0.33527 -0.1741,0.23674 c -0.0958,0.13021 -0.25961,0.30177 -0.36413,0.38126 -0.28585,0.21739 -0.87555,0.47324 -1.29635,0.56244 -0.41244,0.0874 -0.41044,0.0874 -0.86158,0.021 z m 1.54039,-4.05485 c -7.8e-4,-0.86794 -0.3542,-1.32892 -1.06798,-1.39302 -0.43808,-0.0393 -0.7693,0.0596 -1.05112,0.31386 -0.30588,0.27601 -0.38678,0.48645 -0.38678,1.00613 v 0.42902 h 1.2531 1.2531 z"
     id="path2654" />
  <path
     style="fill:#ffffff;fill-opacity:1;stroke:#4d4d4d;stroke-width:0.0569589;stroke-opacity:0.752941"
     d="m 202.05444,160.93766 c -0.654,-0.11348 -1.14119,-0.48478 -1.44641,-1.10234 -0.29567,-0.59825 -0.38881,-1.20992 -0.3526,-2.3154 0.0299,-0.91145 0.13483,-1.47562 0.37598,-2.02078 0.14494,-0.32765 0.5695,-0.74835 0.90658,-0.89834 0.33142,-0.14746 1.04522,-0.2002 1.34969,-0.0997 0.30591,0.10096 0.63745,0.42405 0.83333,0.81209 0.0936,0.18542 0.19952,0.32459 0.23743,0.31196 0.0509,-0.0169 0.0723,-0.47785 0.0835,-1.79803 l 0.0151,-1.77524 h 0.56878 0.56878 v 4.41431 4.41432 h -0.56959 -0.56959 v -0.54111 c 0,-0.62617 -0.0799,-0.70803 -0.28255,-0.28944 -0.13948,0.28813 -0.55022,0.69018 -0.81735,0.80004 -0.26149,0.10755 -0.59786,0.14028 -0.90103,0.0877 z m 1.40592,-1.16858 c 0.15495,-0.0787 0.32842,-0.20771 0.38548,-0.28665 0.16867,-0.23339 0.22296,-0.81769 0.20046,-2.15767 -0.0204,-1.2126 -0.0261,-1.2664 -0.16265,-1.5136 -0.20144,-0.36475 -0.51436,-0.51303 -1.07921,-0.51138 -0.71283,0.002 -1.06456,0.2445 -1.31642,0.90733 -0.0938,0.2469 -0.10967,0.43941 -0.1094,1.32766 3.5e-4,1.14195 0.0348,1.34638 0.28221,1.67284 0.37522,0.49518 0.42843,0.55086 0.59623,0.62393 0.30226,0.13163 0.88029,0.10162 1.2033,-0.0625 z"
     id="path2656" />
  <path
     style="fill:#ffffff;fill-opacity:1;stroke:#4d4d4d;stroke-width:0.0569589;stroke-opacity:0.752941"
     d="m 160.14003,172.12989 v -3.10426 h 0.56959 0.56959 v 0.51263 c 0,0.39698 0.0177,0.51263 0.0783,0.51263 0.0431,0 0.0926,-0.0714 0.11005,-0.15865 0.061,-0.3049 0.39092,-0.71027 0.71524,-0.87876 0.25681,-0.13341 0.37539,-0.15873 0.74352,-0.15873 0.73516,0 1.17896,0.30368 1.512,1.03461 0.20986,0.4606 0.25841,1.07649 0.25841,3.27854 v 2.00929 h -0.59567 -0.59566 l -0.0166,-2.32107 c -0.0161,-2.24065 -0.0209,-2.33032 -0.1398,-2.58759 -0.13749,-0.2975 -0.33212,-0.42809 -0.71659,-0.48078 -0.48493,-0.0665 -0.92056,0.14655 -1.12692,0.55105 -0.10619,0.20815 -0.11233,0.3432 -0.11233,2.47124 v 2.25106 l -0.12816,0.0266 c -0.27794,0.0577 -0.88461,0.14643 -1.00144,0.14643 h -0.1235 z"
     id="path2658" />
  <path
     style="fill:#ffffff;fill-opacity:1;stroke:#4d4d4d;stroke-width:0.0569589;stroke-opacity:0.752941"
     d="m 167.85797,175.24362 c -0.66149,-0.19811 -0.87989,-0.38471 -1.33268,-1.13858 -0.36315,-0.60465 -0.48243,-1.10134 -0.48115,-2.00363 0.001,-1.03595 0.2084,-1.83018 0.62387,-2.39457 0.46091,-0.62609 1.10471,-0.88568 2.08934,-0.84244 0.44077,0.0194 0.58611,0.0518 0.90955,0.20328 0.47253,0.22125 0.96151,0.6723 1.15286,1.0634 0.18257,0.37317 0.29648,0.92087 0.34635,1.66543 l 0.0395,0.58969 h -1.91589 -1.9159 l 3.2e-4,0.38448 c 6.4e-4,0.77396 0.16168,1.05836 0.76941,1.35871 0.39195,0.19371 0.45113,0.20696 0.81002,0.18128 0.54301,-0.0388 0.86791,-0.19721 1.13292,-0.55218 l 0.21692,-0.29056 0.3268,0.3234 0.3268,0.32339 -0.0971,0.16732 c -0.1526,0.26304 -0.53882,0.57323 -1.01415,0.81449 -0.41708,0.21171 -0.46439,0.22241 -1.0415,0.23561 -0.44941,0.0103 -0.69228,-0.0124 -0.94632,-0.0885 z m 1.96369,-3.89692 c -0.004,-0.94723 -0.42202,-1.46231 -1.18814,-1.46544 -0.40172,-0.002 -0.69376,0.0901 -0.94441,0.29673 -0.2926,0.24119 -0.3821,0.45522 -0.41573,0.99424 l -0.0295,0.47351 h 1.28961 1.2896 z"
     id="path2660" />
  <path
     style="fill:#ffffff;fill-opacity:1;stroke:#4d4d4d;stroke-width:0.0569589;stroke-opacity:0.752941"
     d="m 173.23658,175.19143 c -0.36947,-0.18715 -0.67781,-0.56964 -0.86094,-1.06798 -0.12054,-0.328 -0.12645,-0.43743 -0.14685,-2.71979 l -0.0213,-2.37803 h 0.56991 0.56991 l 0.0178,2.23564 0.0178,2.23563 0.15938,0.32457 c 0.21641,0.4407 0.45386,0.587 0.95132,0.58613 0.50302,-8.7e-4 0.80094,-0.16888 0.99696,-0.56224 l 0.14221,-0.28538 v -2.26718 -2.26717 h 0.56959 0.56959 v 3.07578 3.07578 h -0.56737 -0.56737 l -0.0165,-0.49501 -0.0165,-0.49501 -0.17146,0.33593 c -0.1904,0.37301 -0.52861,0.67075 -0.86947,0.76541 -0.11669,0.0324 -0.39339,0.0591 -0.6149,0.0592 -0.32682,2.9e-4 -0.46103,-0.0292 -0.71197,-0.15632 z"
     id="path2662" />
  <path
     style="fill:#ffffff;fill-opacity:1;stroke:#4d4d4d;stroke-width:0.0569589;stroke-opacity:0.752941"
     d="m 180.3035,175.29095 c -0.23496,-0.0226 -0.50662,-0.0587 -0.60369,-0.0801 -0.20298,-0.0448 -0.50061,-0.3299 -0.58896,-0.56424 -0.0388,-0.10304 -0.0605,-0.95282 -0.0605,-2.37803 v -2.21769 h -0.45567 -0.45567 v -0.45567 -0.45567 h 0.28662 c 0.15764,0 0.37551,-0.0371 0.48415,-0.0825 l 0.19753,-0.0825 v -0.71489 -0.71489 h 0.54111 0.54111 v 0.85438 0.85438 h 0.59807 0.59807 v 0.45567 0.45568 h -0.59807 -0.59807 v 2.13596 2.13596 h 0.54111 0.54111 v 0.45567 0.45567 l -0.27056,-0.008 c -0.1488,-0.004 -0.46279,-0.0265 -0.69774,-0.0491 z"
     id="path2664" />
  <path
     style="fill:#ffffff;fill-opacity:1;stroke:#4d4d4d;stroke-width:0.0569589;stroke-opacity:0.752941"
     d="m 182.63881,172.14633 v -3.1207 h 0.56959 0.56959 v 0.59807 c 0,0.69461 0.0876,0.79618 0.24798,0.28746 0.1623,-0.51486 0.71841,-0.88553 1.32854,-0.88553 h 0.24617 v 0.62655 0.62654 h -0.41523 c -0.8251,0 -1.34221,0.24021 -1.46446,0.68027 -0.0321,0.11571 -0.0564,1.06374 -0.0566,2.2104 -3e-4,1.87275 -0.007,2.00804 -0.1,2.01132 -0.0548,0.002 -0.2855,0.0222 -0.51263,0.0449 l -0.41295,0.0414 z"
     id="path2666" />
  <path
     style="fill:#ffffff;fill-opacity:1;stroke:#4d4d4d;stroke-width:0.0569589;stroke-opacity:0.752941"
     d="m 188.22079,175.25671 c -0.68973,-0.18463 -0.97225,-0.41584 -1.36401,-1.11626 -0.36879,-0.65934 -0.5109,-2.07747 -0.31282,-3.12164 0.29623,-1.56163 1.11507,-2.22952 2.63594,-2.15005 1.00746,0.0526 1.58245,0.41186 1.98339,1.23909 0.52327,1.07963 0.52231,2.99715 -0.002,4.02944 -0.18564,0.36547 -0.57082,0.79223 -0.83815,0.92861 -0.52977,0.27027 -1.48248,0.35674 -2.10233,0.19081 z m 1.44827,-0.98828 c 0.12894,-0.0797 0.25366,-0.23565 0.35743,-0.44696 0.15679,-0.31929 0.15969,-0.344 0.17819,-1.5207 0.0121,-0.76979 -0.005,-1.30401 -0.0476,-1.49876 -0.1216,-0.55408 -0.58969,-0.91828 -1.18341,-0.92075 -0.3819,-0.002 -0.6224,0.0993 -0.84741,0.35561 -0.30441,0.3467 -0.33265,0.50987 -0.33265,1.9215 0,1.10785 0.0142,1.31838 0.10476,1.55311 0.11367,0.29463 0.35592,0.51654 0.70678,0.64745 0.29256,0.10915 0.81243,0.0649 1.06392,-0.0905 z"
     id="path2668" />
  <path
     style="fill:#ffffff;fill-opacity:1;stroke:#4d4d4d;stroke-width:0.0569589;stroke-opacity:0.752941"
     d="m 192.94838,172.12989 v -3.10426 h 0.56959 0.56959 v 0.51263 c 0,0.287 0.0239,0.51263 0.0543,0.51263 0.0299,0 0.10753,-0.12034 0.17259,-0.26742 0.28988,-0.65532 0.70935,-0.92872 1.42493,-0.92872 0.58848,0 0.93732,0.17075 1.2549,0.61425 0.43729,0.61066 0.45386,0.73405 0.45386,3.37888 v 2.32931 h -0.56664 -0.56664 l -0.0172,-2.32107 c -0.0156,-2.11114 -0.0267,-2.34288 -0.12262,-2.56206 -0.32104,-0.73383 -1.56319,-0.67143 -1.90931,0.0959 -0.0768,0.17023 -0.0957,0.55572 -0.12041,2.45013 l -0.0293,2.24811 -0.4272,0.0686 c -0.23495,0.0377 -0.49767,0.0706 -0.58382,0.073 l -0.15664,0.004 z"
     id="path2670" />
</svg>
